<svg width="25" height="24" viewBox="0 0 25 24" fill="none" xmlns="http://www.w3.org/2000/svg">
<path d="M19.5 2C19.5 2.39782 19.342 2.77936 19.0607 3.06066C18.7794 3.34196 18.3978 3.5 18 3.5H11C10.6022 3.5 10.2206 3.34196 9.93934 3.06066C9.65804 2.77936 9.5 2.39782 9.5 2C9.5 1.60218 9.65804 1.22064 9.93934 0.93934C10.2206 0.658035 10.6022 0.5 11 0.5H18C18.3978 0.5 18.7794 0.658035 19.0607 0.93934C19.342 1.22064 19.5 1.60218 19.5 2Z" stroke="black" stroke-linecap="round" stroke-linejoin="round"/>
<path d="M9.5 23.5H19.5" stroke="black" stroke-linecap="round" stroke-linejoin="round"/>
<path d="M17.5 9.183V3.5H11.5V9.183C10.484 9.67181 9.60045 10.3979 8.92404 11.3L6.13804 9.1L4.36304 11.39L7.62504 14.247C7.33266 15.7603 7.55539 17.3279 8.2577 18.6999C8.96 20.0719 10.1015 21.1693 11.5 21.817V23.5H17.5V21.817C18.6966 21.251 19.7078 20.3568 20.416 19.2385C21.1242 18.1202 21.5001 16.8237 21.5001 15.5C21.5001 14.1763 21.1242 12.8798 20.416 11.7615C19.7078 10.6432 18.6966 9.74898 17.5 9.183Z" stroke="black" stroke-linecap="round" stroke-linejoin="round"/>
<path d="M7 8L3.5 12.5" stroke="black" stroke-linecap="round" stroke-linejoin="round"/>
<path d="M18.5 15.5C18.5 16.5609 18.0786 17.5783 17.3284 18.3284C16.5783 19.0786 15.5609 19.5 14.5 19.5" stroke="black" stroke-linecap="round" stroke-linejoin="round"/>
</svg>
