<?xml version="1.0" encoding="UTF-8"?>
<svg version="1.1" xmlns="http://www.w3.org/2000/svg" xmlns:xlink="http://www.w3.org/1999/xlink" width="30px" viewBox="0 0 102 102" fill="none"><path d="M89.7402 15.1099L75.2679 0.637573L66.7314 12.0451C60.9006 8.36264 54.1391 6.39062 47.0742 6.39062C37.2143 6.39062 27.9446 10.2303 20.9726 17.2023C15.1865 22.9884 10.5205 30.3068 7.10416 38.9541C4.39878 45.8021 2.46643 53.4971 1.3609 61.8258C-0.514847 75.955 0.623181 86.9194 0.672455 87.3789L0.897859 89.4798L2.99866 89.7051C3.14404 89.7209 6.62067 90.0873 12.1541 90.0873C27.2196 90.0873 55.1806 87.4004 73.1755 69.4055C85.5751 57.0059 87.2908 37.9073 78.3248 23.6524L89.7402 15.1099ZM75.8396 8.62264L81.7553 14.5382L75.2237 19.426C74.5763 18.6639 73.8948 17.9213 73.1757 17.2021C72.4587 16.4852 71.7161 15.8032 70.9524 15.1532L75.8396 8.62264ZM69.4691 20.9087C74.859 26.2989 77.8959 33.1642 78.5805 40.2171L57.0837 33.2125L50.0997 11.7755C57.4169 12.4645 64.2061 15.6458 69.4691 20.9087ZM44.5721 11.7306L50.9159 31.2025L23.4023 22.2372C23.8185 21.7881 24.2431 21.3447 24.679 20.9087C30.0672 15.5205 37.0553 12.3142 44.5721 11.7306ZM29.1445 29.6215L34.883 47.2355L12.3971 39.9085C14.2928 35.3066 16.7153 30.7601 19.8086 26.5795L29.1445 29.6215ZM36.8924 53.4034L42.6318 71.02L25.0185 65.2799L19.2795 47.6642L36.8924 53.4034ZM44.6414 77.1882L45.514 79.8665C40.5952 81.505 35.6361 82.6282 30.9175 83.3861L27.0281 71.4481L44.6414 77.1882ZM43.0605 55.4133L60.6734 61.1526L63.7564 70.6157C59.6039 73.6969 55.0803 76.1276 50.4324 78.0411L43.0605 55.4133ZM41.0509 49.2453L35.3123 31.6313L52.9253 37.3705L58.6638 54.9846L41.0509 49.2453ZM10.5675 44.8255L13.1114 45.6544L18.8505 63.2698L7.01574 59.413C7.75171 54.8965 8.87139 49.8951 10.5675 44.8255ZM5.71906 84.6594C5.50623 81.1447 5.27576 73.6704 6.29078 64.69L20.8601 69.438L25.6381 84.1038C20.5622 84.6706 15.9316 84.8453 12.1543 84.8453C9.42826 84.8453 7.21616 84.7505 5.71906 84.6594ZM69.4691 65.6989C69.0191 66.1489 68.5606 66.5866 68.0969 67.0161L59.0933 39.3803L78.6353 45.7481C78.0769 53.0255 75.0226 60.1454 69.4691 65.6989Z" fill="#64737F"></path><path d="M101.401 73.3624C101.401 88.8264 88.8649 101.362 73.4009 101.362C57.9369 101.362 45.4009 88.8264 45.4009 73.3624C45.4009 57.8985 57.9369 45.3624 73.4009 45.3624C88.8649 45.3624 101.401 57.8985 101.401 73.3624Z" fill="white"></path><path d="M67.3694 62.0363C64.1414 62.4349 61.4008 64.4169 59.8394 67.4842C59.3134 68.5144 58.937 69.6936 58.7486 70.9173C58.6325 71.6759 58.6158 73.3976 58.7264 74.1562C59.3299 78.414 62.1204 81.7858 65.9573 82.8985C66.7324 83.1256 67.3526 83.203 68.338 83.203C69.7333 83.203 70.608 82.9927 71.9368 82.3502C73.8469 81.4255 75.7847 79.6538 77.4957 77.2619L77.9441 76.6362L78.2653 77.3229C79.4503 79.8145 80.2531 81.4697 80.386 81.6636C80.635 82.029 81.2387 82.5438 81.6981 82.7818C82.3625 83.125 82.6837 83.2027 83.4533 83.2027C84.0235 83.2027 84.1841 83.1805 84.566 83.0534C85.8062 82.6437 86.6754 81.6139 86.9025 80.285C86.9744 79.8532 86.9799 79.737 86.9247 79.6816C86.8473 79.6041 85.9946 79.5874 84.3448 79.6374L83.4091 79.6651L81.9916 76.62C81.211 74.9425 80.5466 73.5085 80.5079 73.4253C80.4414 73.2815 80.5411 73.1431 83.7026 69.0292C86.9305 64.8159 86.9583 64.7771 86.8418 64.6885C86.7754 64.6385 86.1277 64.1792 85.3969 63.6696C84.1125 62.7616 84.0735 62.7394 83.9796 62.8391C83.9242 62.9 82.7008 64.4779 81.2668 66.3492C79.8328 68.2206 78.6368 69.7597 78.6146 69.771C78.5981 69.7765 78.5314 69.7046 78.4762 69.6049C78.1607 69.0456 77.0422 67.44 76.5384 66.8088C74.3903 64.1347 72.1422 62.5788 69.7503 62.1137C69.1853 62.003 67.9396 61.9643 67.3694 62.0363ZM69.2959 65.6074C71.0399 65.9673 72.8006 67.4291 74.4394 69.8929C75.0983 70.884 75.9508 72.4287 75.9508 72.639C75.9508 72.7774 75.2477 74.0952 74.7603 74.8813C74.1069 75.9334 73.4482 76.7749 72.6619 77.5667C71.8037 78.4249 71.3553 78.7681 70.6077 79.1391C69.744 79.5654 69.3231 79.6651 68.3932 79.6593C67.7232 79.6538 67.5517 79.6316 67.1198 79.5042C65.3481 78.9781 63.8754 77.7103 63.0061 75.9553C62.1369 74.2114 61.9763 72.1849 62.5578 70.3467C63.2664 68.1264 64.9052 66.4102 66.9207 65.7735C67.7625 65.5077 68.5431 65.4525 69.2959 65.6074Z" fill="#64737F"></path><path fill-rule="evenodd" clip-rule="evenodd" d="M73.4009 95.3624C85.5511 95.3624 95.4009 85.5127 95.4009 73.3624C95.4009 61.2122 85.5511 51.3624 73.4009 51.3624C61.2506 51.3624 51.4009 61.2122 51.4009 73.3624C51.4009 85.5127 61.2506 95.3624 73.4009 95.3624ZM73.4009 101.362C88.8649 101.362 101.401 88.8264 101.401 73.3624C101.401 57.8985 88.8649 45.3624 73.4009 45.3624C57.9369 45.3624 45.4009 57.8985 45.4009 73.3624C45.4009 88.8264 57.9369 101.362 73.4009 101.362Z" fill="#64737F"></path></svg>