<?xml version="1.0" encoding="UTF-8"?>
<svg version="1.1" xmlns="http://www.w3.org/2000/svg" xmlns:xlink="http://www.w3.org/1999/xlink" width="28px" viewBox="0 0 100 109" fill="none"><path d="M93.078 67.9173L82.0384 56.8777C79.1023 53.9416 75.3442 52.5323 71.4686 52.5323C70.1767 52.5323 68.7674 52.7672 67.4755 53.1195C67.3581 51.123 66.536 49.0091 65.0092 47.4823L59.4895 41.9625C58.5499 41.023 56.9057 41.023 55.9662 41.9625L54.2046 43.7242L37.2929 26.695C38.4673 25.0508 39.1719 23.1718 39.1719 21.1752C39.1719 18.5915 38.2324 16.0078 36.2359 14.0113C34.2394 12.0147 31.6556 11.0752 29.0719 11.0752C26.6056 11.0752 24.0219 12.0147 22.0254 13.8938L21.9079 14.0113L3.8218 32.0974C1.82528 34.0939 0.885742 36.6776 0.885742 39.2614C0.885742 41.8451 1.82528 44.4288 3.8218 46.4253C5.81832 48.4219 8.40205 49.3614 10.9858 49.3614C12.9823 49.3614 14.8614 48.5393 16.5056 47.4823L33.5347 64.394L31.6556 66.2731C30.7161 67.2126 30.7161 68.8568 31.6556 69.7964L37.1754 75.3161C38.7022 76.8429 40.8161 77.665 42.8127 77.7824C42.4603 79.0743 42.2254 80.3662 42.2254 81.7755C42.2254 85.6511 43.6348 89.4092 46.5708 92.3453L57.6104 103.385C58.5499 104.324 60.1941 104.324 61.1337 103.385L93.078 71.4406C94.0175 70.501 94.0175 68.8568 93.078 67.9173Z" fill="white"></path><path d="M93.078 67.9173L82.0384 56.8777C79.1023 53.9416 75.3442 52.5323 71.4686 52.5323C70.1767 52.5323 68.7674 52.7672 67.4755 53.1195C67.3581 51.123 66.536 49.0091 65.0093 47.4823L59.4895 41.9625C58.5499 41.023 56.9057 41.023 55.9662 41.9625L54.2046 43.7242L37.2929 26.695C38.4673 25.0508 39.1719 23.1718 39.1719 21.1752C39.1719 18.5915 38.2324 16.0078 36.2359 14.0113C34.2394 12.0147 31.6556 11.0752 29.0719 11.0752C26.6056 11.0752 24.0219 12.0147 22.0254 13.8938L21.9079 14.0113L3.8218 32.0974C1.82528 34.0939 0.885742 36.6776 0.885742 39.2614C0.885742 41.8451 1.82528 44.4288 3.8218 46.4253C5.81832 48.4219 8.40205 49.3614 10.9858 49.3614C12.9823 49.3614 14.8614 48.5393 16.5056 47.4823L33.5347 64.394L31.6556 66.2731C30.7161 67.2126 30.7161 68.8568 31.6556 69.7964L37.1754 75.3162C38.7022 76.8429 40.8161 77.665 42.8127 77.7824C42.4603 79.0743 42.2254 80.3662 42.2254 81.7755C42.2254 85.6511 43.6348 89.4092 46.5708 92.3453L57.6104 103.385C58.5499 104.324 60.1941 104.324 61.1337 103.385L93.078 71.4406C94.0175 70.501 94.0175 68.8568 93.078 67.9173ZM14.6265 42.7846L14.5091 42.9021C13.5695 43.8416 12.2776 44.3114 10.9858 44.3114C9.69392 44.3114 8.40205 43.8416 7.34507 42.7846C6.40553 41.8451 5.93576 40.5532 5.93576 39.2614C5.93576 37.9695 6.40553 36.6776 7.46251 35.6206L25.5486 17.5345L25.6661 17.4171C26.6056 16.4775 27.8975 16.0078 29.1893 16.0078C30.4812 16.0078 31.7731 16.4775 32.8301 17.5345C33.7696 18.4741 34.3568 19.8834 34.3568 21.1752C34.3568 22.4671 33.887 23.759 32.8301 24.8159L14.6265 42.7846ZM20.3812 44.1939L27.1928 37.3823L34.0045 30.5706L50.6813 47.2474L37.058 60.8707L20.3812 44.1939ZM45.9836 71.6754C45.2789 72.3801 44.3394 72.7324 43.3999 72.7324C42.4603 72.7324 41.5208 72.3801 40.8161 71.6754L37.058 67.9173L38.9371 66.0382L56.0836 48.8916L57.9627 47.0126L61.486 50.8881C62.1906 51.5928 62.543 52.5323 62.543 53.4719C62.543 54.4114 62.1906 55.351 61.486 56.0556L60.8988 56.6428L46.5708 71.0882L45.9836 71.6754ZM59.2546 97.8651L50.0941 88.7046C48.215 86.8255 47.158 84.2418 47.158 81.658C47.158 79.0743 48.0976 76.608 50.0941 74.6115L64.5395 60.1661C66.4186 58.287 69.0023 57.23 71.586 57.23C74.0523 57.3475 76.636 58.287 78.5151 60.2835L87.6756 69.444L59.2546 97.8651Z" fill="#64737F"></path><path d="M93.3135 85.8861C95.0648 85.8861 96.4845 84.4664 96.4845 82.7151C96.4845 80.9639 95.0648 79.5442 93.3135 79.5442C91.5623 79.5442 90.1426 80.9639 90.1426 82.7151C90.1426 84.4664 91.5623 85.8861 93.3135 85.8861Z" fill="#64737F"></path><path d="M82.8619 96.2208C84.6131 96.2208 86.0328 94.8011 86.0328 93.0499C86.0328 91.2986 84.6131 89.8789 82.8619 89.8789C81.1106 89.8789 79.6909 91.2986 79.6909 93.0499C79.6909 94.8011 81.1106 96.2208 82.8619 96.2208Z" fill="#64737F"></path><path d="M72.5254 106.673C74.2767 106.673 75.6964 105.254 75.6964 103.502C75.6964 101.751 74.2767 100.331 72.5254 100.331C70.7742 100.331 69.3545 101.751 69.3545 103.502C69.3545 105.254 70.7742 106.673 72.5254 106.673Z" fill="#64737F"></path><path d="M94.9556 108.317C96.7069 108.317 98.1266 106.898 98.1266 105.146C98.1266 103.395 96.7069 101.975 94.9556 101.975C93.2043 101.975 91.7847 103.395 91.7847 105.146C91.7847 106.898 93.2043 108.317 94.9556 108.317Z" fill="#64737F"></path><path d="M94.252 97.1605C96.0033 97.1605 97.4229 95.7408 97.4229 93.9895C97.4229 92.2383 96.0033 90.8186 94.252 90.8186C92.5007 90.8186 91.0811 92.2383 91.0811 93.9895C91.0811 95.7408 92.5007 97.1605 94.252 97.1605Z" fill="#64737F"></path><path d="M83.7989 107.613C85.5501 107.613 86.9698 106.193 86.9698 104.442C86.9698 102.691 85.5501 101.271 83.7989 101.271C82.0476 101.271 80.6279 102.691 80.6279 104.442C80.6279 106.193 82.0476 107.613 83.7989 107.613Z" fill="#64737F"></path><path d="M99.4683 28C99.4683 43.464 86.9322 56 71.4683 56C56.0043 56 43.4683 43.464 43.4683 28C43.4683 12.536 56.0043 0 71.4683 0C86.9322 0 99.4683 12.536 99.4683 28Z" fill="white"></path><path fill-rule="evenodd" clip-rule="evenodd" d="M71.4683 50C83.6185 50 93.4683 40.1503 93.4683 28C93.4683 15.8497 83.6185 6 71.4683 6C59.318 6 49.4683 15.8497 49.4683 28C49.4683 40.1503 59.318 50 71.4683 50ZM71.4683 56C86.9322 56 99.4683 43.464 99.4683 28C99.4683 12.536 86.9322 0 71.4683 0C56.0043 0 43.4683 12.536 43.4683 28C43.4683 43.464 56.0043 56 71.4683 56Z" fill="#64737F"></path><path d="M71.3078 12.6053C68.9032 12.8885 66.6372 14.0759 65.0884 15.8657L64.6484 16.378L64.6604 29.1842L64.6783 41.9905L64.8832 42.3701C65.2387 43.027 65.8232 43.3705 66.5766 43.3765C67.3541 43.3765 67.9868 42.9789 68.3184 42.2677L68.4752 41.9301L68.5054 38.8929L68.5355 35.8616L68.8187 36.0907C69.6805 36.8079 70.9461 37.3019 72.4528 37.5128C73.3026 37.6272 75.1164 37.6153 75.7371 37.4827C77.3582 37.1332 78.5817 36.4763 79.7207 35.3373C80.8656 34.1984 81.5225 32.9689 81.8663 31.3538C82.0109 30.6488 82.0109 29.166 81.8663 28.4611C81.3842 26.1831 80.0764 24.375 78.0634 23.2301C77.5995 22.9648 76.629 22.555 76.4543 22.555C76.3578 22.555 76.3939 22.4947 76.6894 22.1452C77.322 21.4101 77.7561 20.5782 77.9792 19.6862C78.1781 18.8908 78.1659 17.6855 77.949 16.8778C77.696 15.9255 77.2438 15.1058 76.569 14.3829C75.4963 13.238 74.1103 12.6233 72.483 12.5811C72.0672 12.5692 71.5429 12.5811 71.3078 12.6053ZM73.1338 16.6188C73.5075 16.8177 73.9233 17.2455 74.116 17.6192C74.3511 18.0771 74.3328 19.4813 74.0739 20.4936C73.863 21.3192 73.3809 21.9642 72.8566 22.1207C72.6938 22.1688 71.9647 22.193 70.5605 22.193H68.5054V20.168C68.5054 17.8778 68.4994 17.9143 68.9875 17.4322C69.6384 16.7813 70.8738 16.4016 72.2117 16.4318C72.7482 16.4381 72.8507 16.4623 73.1338 16.6188ZM75.5746 26.2432C76.5992 26.6109 77.2981 27.2495 77.7561 28.2499C78.4673 29.7804 78.1778 31.4499 77.0087 32.6251C76.2252 33.4026 75.3153 33.7581 74.104 33.764C72.3984 33.764 70.3917 33.3542 69.0359 32.7275L68.5057 32.4805V29.2622V26.0439L71.8082 26.0621L75.1047 26.08L75.5746 26.2432Z" fill="#64737F"></path></svg>