<?xml version="1.0" encoding="UTF-8"?>
<svg version="1.1" xmlns="http://www.w3.org/2000/svg" xmlns:xlink="http://www.w3.org/1999/xlink" width="30px" viewBox="0 0 102 102" fill="none"><path d="M89.8857 14.9289L75.4134 0.456543L66.8769 11.8641C61.0461 8.18161 54.2847 6.20959 47.2197 6.20959C37.3598 6.20959 28.0901 10.0493 21.1181 17.0213C15.3321 22.8074 10.666 30.1258 7.24966 38.7731C4.54429 45.621 2.61193 53.316 1.50641 61.6448C-0.369339 75.774 0.768689 86.7384 0.817963 87.1979L1.04337 89.2987L3.14417 89.5241C3.28954 89.5398 6.76618 89.9063 12.2996 89.9063C27.3651 89.9063 55.3261 87.2194 73.321 69.2245C85.7206 56.8248 87.4363 37.7263 78.4703 23.4713L89.8857 14.9289ZM75.9851 8.44161L81.9008 14.3572L75.3692 19.2449C74.7218 18.4829 74.0404 17.7403 73.3212 17.0211C72.6042 16.3042 71.8616 15.6222 71.0979 14.9722L75.9851 8.44161ZM69.6146 20.7277C75.0045 26.1178 78.0414 32.9832 78.726 40.0361L57.2292 33.0314L50.2452 11.5945C57.5625 12.2834 64.3517 15.4648 69.6146 20.7277ZM44.7176 11.5496L51.0614 31.0215L23.5478 22.0562C23.964 21.6071 24.3886 21.1637 24.8245 20.7277C30.2127 15.3395 37.2008 12.1332 44.7176 11.5496ZM29.29 29.4405L35.0285 47.0545L12.5426 39.7275C14.4383 35.1256 16.8608 30.5791 19.9541 26.3984L29.29 29.4405ZM37.0379 53.2224L42.7773 70.839L25.164 65.0989L19.425 47.4831L37.0379 53.2224ZM44.7869 77.0072L45.6595 79.6855C40.7407 81.324 35.7816 82.4471 31.063 83.2051L27.1736 71.2671L44.7869 77.0072ZM43.206 55.2323L60.8189 60.9716L63.9019 70.4347C59.7494 73.5159 55.2258 75.9466 50.5779 77.8601L43.206 55.2323ZM41.1964 49.0643L35.4578 31.4503L53.0708 37.1895L58.8093 54.8035L41.1964 49.0643ZM10.713 44.6445L13.2569 45.4734L18.996 63.0888L7.16125 59.2319C7.89722 54.7155 9.0169 49.7141 10.713 44.6445ZM5.86457 84.4784C5.65174 80.9637 5.42127 73.4893 6.43629 64.509L21.0056 69.257L25.7836 83.9227C20.7077 84.4896 16.0771 84.6643 12.2998 84.6643C9.57377 84.6643 7.36167 84.5694 5.86457 84.4784ZM69.6146 65.5179C69.1646 65.9678 68.7061 66.4055 68.2424 66.835L59.2388 39.1993L78.7808 45.567C78.2224 52.8444 75.1681 59.9644 69.6146 65.5179Z" fill="#64737F"></path><path d="M101.546 73.1814C101.546 88.6454 89.0104 101.181 73.5464 101.181C58.0824 101.181 45.5464 88.6454 45.5464 73.1814C45.5464 57.7174 58.0824 45.1814 73.5464 45.1814C89.0104 45.1814 101.546 57.7174 101.546 73.1814Z" fill="white"></path><path fill-rule="evenodd" clip-rule="evenodd" d="M73.5464 95.1814C85.6967 95.1814 95.5464 85.3317 95.5464 73.1814C95.5464 61.0311 85.6967 51.1814 73.5464 51.1814C61.3961 51.1814 51.5464 61.0311 51.5464 73.1814C51.5464 85.3317 61.3961 95.1814 73.5464 95.1814ZM73.5464 101.181C89.0104 101.181 101.546 88.6454 101.546 73.1814C101.546 57.7174 89.0104 45.1814 73.5464 45.1814C58.0824 45.1814 45.5464 57.7174 45.5464 73.1814C45.5464 88.6454 58.0824 101.181 73.5464 101.181Z" fill="#64737F"></path><path d="M73.386 57.7867C70.9814 58.0699 68.7154 59.2573 67.1666 61.0471L66.7266 61.5594L66.7385 74.3656L66.7564 87.1719L66.9613 87.5515C67.3168 88.2084 67.9014 88.5519 68.6547 88.5579C69.4323 88.5579 70.0649 88.1603 70.3965 87.4491L70.5533 87.1115L70.5835 84.0743L70.6137 81.043L70.8968 81.2721C71.7586 81.9893 73.0242 82.4833 74.5309 82.6942C75.3807 82.8086 77.1945 82.7967 77.8152 82.6641C79.4363 82.3146 80.6598 81.6577 81.7988 80.5187C82.9437 79.3798 83.6006 78.1503 83.9444 76.5352C84.089 75.8302 84.089 74.3474 83.9444 73.6425C83.4623 71.3645 82.1546 69.5564 80.1415 68.4115C79.6777 68.1462 78.7071 67.7364 78.5324 67.7364C78.4359 67.7364 78.4721 67.6761 78.7675 67.3266C79.4001 66.5915 79.8342 65.7596 80.0573 64.8676C80.2563 64.0722 80.244 62.8669 80.0271 62.0591C79.7741 61.1069 79.3219 60.2872 78.6471 59.5643C77.5745 58.4194 76.1885 57.8047 74.5611 57.7625C74.1453 57.7506 73.6211 57.7625 73.386 57.7867ZM75.212 61.8002C75.5857 61.9991 76.0015 62.4269 76.1941 62.8005C76.4292 63.2585 76.411 64.6627 76.152 65.675C75.9411 66.5006 75.459 67.1456 74.9348 67.3021C74.772 67.3502 74.0428 67.3744 72.6386 67.3744H70.5835V65.3494C70.5835 63.0592 70.5775 63.0957 71.0656 62.6135C71.7165 61.9627 72.9519 61.583 74.2899 61.6132C74.8263 61.6195 74.9288 61.6437 75.212 61.8002ZM77.6527 71.4246C78.6773 71.7923 79.3763 72.4309 79.8342 73.4313C80.5454 74.9618 80.2559 76.6313 79.0868 77.8064C78.3033 78.584 77.3934 78.9395 76.1822 78.9454C74.4765 78.9454 72.4698 78.5356 71.114 77.9089L70.5838 77.6619V74.4436V71.2253L73.8863 71.2435L77.1829 71.2614L77.6527 71.4246Z" fill="#64737F"></path></svg>