<?xml version="1.0" encoding="UTF-8"?>
<svg version="1.1" xmlns="http://www.w3.org/2000/svg" xmlns:xlink="http://www.w3.org/1999/xlink" width="30px" viewBox="0 0 95 86" fill="none"><path d="M82.0425 16.9774C80.873 10.4907 75.1902 5.54246 68.3771 5.53025L60.0012 5.51504C58.6201 2.57489 56.5687 0.861556 56.4579 0.770439C55.3872 -0.109132 53.807 0.04585 52.9282 1.11618C52.049 2.18651 52.2038 3.76693 53.2738 4.64634C53.2954 4.66406 55.4399 6.49359 56.0652 9.41785C56.2616 10.3365 56.274 11.6259 56.1088 13.1418C39.1386 12.5227 25.8974 22.7629 24.7462 42.1345C23.8803 56.7067 28.1571 62.9608 26.2271 75.4646L24.2834 81.4328C23.8066 82.8974 24.7517 84.4437 26.2728 84.6865C42.6566 87.3006 60.3451 85.7946 72.6093 74.9348C74.9187 79.9536 77.0165 83.2617 77.5985 84.1474C78.4834 85.8071 80.8205 85.9241 81.8817 84.4071C82.0117 84.2212 85.104 79.769 88.2104 72.5945C91.0793 65.9682 94.4993 55.6574 94.4993 44.1668C94.4995 31.7 89.0339 22.0234 82.0425 16.9774ZM61.2219 10.5335L68.3679 10.5465C72.573 10.5542 76.1047 13.5017 77.0189 17.436C76.3359 17.9742 75.4717 18.7193 74.5249 19.6865C70.6878 16.6519 65.9967 14.5426 61.0955 13.6652C61.2027 12.6658 61.2622 11.5898 61.2219 10.5335Z" fill="white"></path><path d="M82.0425 16.9774C80.873 10.4907 75.1902 5.54246 68.3772 5.53025L60.0013 5.51504C58.6201 2.57489 56.5687 0.861556 56.4579 0.770439C55.3872 -0.109132 53.807 0.0458501 52.9282 1.11618C52.049 2.18651 52.2038 3.76693 53.2738 4.64634C53.2954 4.66406 55.4399 6.49358 56.0652 9.41785C56.2616 10.3365 56.274 11.6259 56.1088 13.1418C39.1387 12.5227 25.8974 22.7629 24.7462 42.1345C23.8803 56.7067 28.1571 62.9608 26.2271 75.4646L24.2834 81.4328C23.8066 82.8974 24.7517 84.4437 26.2728 84.6865C42.6566 87.3006 60.3452 85.7946 72.6093 74.9348C74.9187 79.9536 77.0165 83.2617 77.5985 84.1474C78.4834 85.8071 80.8205 85.9241 81.8817 84.4071C82.0118 84.2212 85.104 79.769 88.2104 72.5945C91.0793 65.9682 94.4993 55.6574 94.4993 44.1668C94.4995 31.7 89.0339 22.0234 82.0425 16.9774ZM61.2219 10.5335L68.368 10.5465C72.573 10.5542 76.1047 13.5017 77.0189 17.436C76.3359 17.9742 75.4717 18.7193 74.525 19.6865C70.6878 16.6519 65.9967 14.5426 61.0955 13.6652C61.2027 12.6658 61.2622 11.5898 61.2219 10.5335ZM29.9765 80.149C31.0928 76.6887 31.096 76.7872 31.1506 76.4435C33.3047 62.8537 28.9254 56.3598 29.7529 42.4323C31.3233 16.0104 58.2963 13.3304 71.3337 23.5602C62.232 36.7136 64.7721 55.139 70.5278 70.0173C61.6076 78.7774 47.3372 82.3348 29.9765 80.149ZM70.3612 44.0195C70.3612 36.6433 72.4082 29.6166 77.2549 24.1166L77.2959 73.1174C73.1258 64.1554 70.3612 53.9419 70.3612 44.0195ZM82.3119 73.4393L82.2704 23.9058C93.8397 36.5468 89.7172 58.0245 82.3119 73.4393Z" fill="#64737F"></path><path d="M44.3882 36.8133C45.7732 36.8133 46.896 35.6903 46.896 34.3051C46.896 32.9199 45.7732 31.797 44.3882 31.797C43.0032 31.797 41.8804 32.9199 41.8804 34.3051C41.8804 35.6903 43.0032 36.8133 44.3882 36.8133Z" fill="#64737F"></path><path d="M39.3735 45.5081C40.7586 45.5081 41.8813 44.3852 41.8813 43C41.8813 41.6148 40.7586 40.4918 39.3735 40.4918C37.9885 40.4918 36.8657 41.6148 36.8657 43C36.8657 44.3852 37.9885 45.5081 39.3735 45.5081Z" fill="#64737F"></path><path d="M49.4043 45.5081C50.7893 45.5081 51.9121 44.3852 51.9121 43C51.9121 41.6148 50.7893 40.4918 49.4043 40.4918C48.0193 40.4918 46.8965 41.6148 46.8965 43C46.8965 44.3852 48.0193 45.5081 49.4043 45.5081Z" fill="#64737F"></path><path d="M56.2627 30.5671C56.2627 46.0311 43.7267 58.5671 28.2627 58.5671C12.7987 58.5671 0.262695 46.0311 0.262695 30.5671C0.262695 15.1032 12.7987 2.56714 28.2627 2.56714C43.7267 2.56714 56.2627 15.1032 56.2627 30.5671Z" fill="white"></path><path fill-rule="evenodd" clip-rule="evenodd" d="M28.2627 52.5671C40.413 52.5671 50.2627 42.7174 50.2627 30.5671C50.2627 18.4169 40.413 8.56714 28.2627 8.56714C16.1124 8.56714 6.2627 18.4169 6.2627 30.5671C6.2627 42.7174 16.1124 52.5671 28.2627 52.5671ZM28.2627 58.5671C43.7267 58.5671 56.2627 46.0311 56.2627 30.5671C56.2627 15.1032 43.7267 2.56714 28.2627 2.56714C12.7987 2.56714 0.262695 15.1032 0.262695 30.5671C0.262695 46.0311 12.7987 58.5671 28.2627 58.5671Z" fill="#64737F"></path><path d="M28.1023 15.1725C25.6977 15.4557 23.4317 16.643 21.8829 18.4329L21.4429 18.9452L21.4548 31.7514L21.4727 44.5576L21.6776 44.9373C22.0331 45.5941 22.6177 45.9376 23.371 45.9436C24.1486 45.9436 24.7812 45.546 25.1128 44.8348L25.2696 44.4973L25.2998 41.46L25.33 38.4287L25.6131 38.6578C26.4749 39.375 27.7405 39.8691 29.2472 40.08C30.0971 40.1944 31.9108 40.1824 32.5315 40.0498C34.1526 39.7003 35.3761 39.0435 36.5151 37.9045C37.66 36.7655 38.3169 35.536 38.6607 33.9209C38.8053 33.216 38.8053 31.7332 38.6607 31.0282C38.1786 28.7503 36.8709 26.9422 34.8579 25.7972C34.394 25.532 33.4235 25.1222 33.2487 25.1222C33.1522 25.1222 33.1884 25.0618 33.4838 24.7123C34.1165 23.9772 34.5505 23.1453 34.7736 22.2534C34.9726 21.4579 34.9603 20.2526 34.7435 19.4449C34.4905 18.4926 34.0382 17.6729 33.3634 16.9501C32.2908 15.8051 30.9048 15.1904 29.2774 15.1483C28.8616 15.1363 28.3374 15.1483 28.1023 15.1725ZM29.9283 19.1859C30.302 19.3849 30.7178 19.8126 30.9104 20.1863C31.1455 20.6442 31.1273 22.0484 30.8683 23.0608C30.6574 23.8864 30.1753 24.5313 29.6511 24.6878C29.4883 24.7359 28.7591 24.7601 27.3549 24.7601H25.2998V22.7351C25.2998 20.4449 25.2938 20.4814 25.7819 19.9993C26.4328 19.3484 27.6682 18.9687 29.0062 18.9989C29.5427 19.0052 29.6451 19.0294 29.9283 19.1859ZM32.369 28.8103C33.3936 29.178 34.0926 29.8166 34.5505 30.817C35.2617 32.3476 34.9723 34.0171 33.8031 35.1922C33.0196 35.9697 32.1097 36.3252 30.8985 36.3312C29.1929 36.3312 27.1861 35.9213 25.8303 35.2946L25.3001 35.0476V31.8293V28.611L28.6026 28.6293L31.8992 28.6472L32.369 28.8103Z" fill="#64737F"></path></svg>