<?xml version="1.0" encoding="UTF-8"?>
<svg version="1.1" xmlns="http://www.w3.org/2000/svg" xmlns:xlink="http://www.w3.org/1999/xlink" width="30px" viewBox="0 0 92 92" fill="none"><path d="M78.1158 6.50264C78.1158 8.66106 79.0813 9.66454 81.069 12.6182C81.069 13.3566 81.069 13.1104 80.2361 12.7886C79.1553 12.4074 77.9846 12.3621 76.8776 12.6587C75.7706 12.9553 74.7793 13.5799 74.0338 14.4504C73.2884 15.3209 72.8236 16.3966 72.7008 17.5362C72.5779 18.6758 72.8026 19.8258 73.3453 20.8353C74.5001 23.0695 76.3553 23.4671 78.3998 24.2055C78.5891 24.2055 78.8163 23.8079 77.5669 27.481C76.6309 26.1879 75.3104 25.2237 73.7939 24.7261C72.2773 24.2284 70.6424 24.2227 69.1224 24.7099C67.6025 25.197 66.2753 26.152 65.3304 27.4385C64.3855 28.725 63.8713 30.2773 63.861 31.8735C63.861 39.0493 71.9823 39.8067 71.6037 40.564C71.8687 40.6965 72.2663 40.1475 69.7106 44.4832C69.2187 43.4384 68.4944 42.5198 67.5931 41.7979C66.6918 41.0759 65.6373 40.5697 64.5103 40.318C63.3834 40.0662 62.2137 40.0756 61.0909 40.3454C59.9681 40.6151 58.9219 41.1381 58.0322 41.8744C57.1426 42.6107 56.4331 43.5407 55.958 44.5934C55.4829 45.646 55.2548 46.7934 55.2912 47.9477C55.3275 49.102 55.6274 50.2328 56.1677 51.2534C56.7081 52.2741 57.4748 53.1576 58.409 53.8364L61.3243 55.7298C60.2831 56.9036 59.223 58.0586 58.125 59.1757C58.0548 57.6563 57.6196 56.1762 56.8562 54.8608C56.0928 53.5453 55.0238 52.4331 53.7395 51.6185C52.4553 50.8038 50.9937 50.3106 49.4785 50.1807C47.9633 50.0507 46.4391 50.2878 45.035 50.8719C43.6308 51.456 42.3881 52.3698 41.4119 53.5361C40.4357 54.7024 39.7549 56.0867 39.427 57.5719C39.0992 59.0571 39.1339 60.5995 39.5284 62.0684C39.9229 63.5373 40.6654 64.8896 41.6932 66.0106L44.9871 70.1192C37.9413 74.8102 30.2243 78.4044 22.0999 80.7788C27.0414 76.2637 30.1367 70.079 30.7891 63.4168C31.2056 57.3202 7.58008 64.9125 4.51331 83.9028L2.39307 84.13C1.891 84.13 1.40949 84.3295 1.05447 84.6846C0.699448 85.0396 0.5 85.5212 0.5 86.0234C0.5 86.5255 0.699448 87.0071 1.05447 87.3622C1.40949 87.7172 1.891 87.9167 2.39307 87.9167C4.72155 87.822 8.31838 87.5191 11.2148 87.0836C24.4663 85.1903 20.3204 84.2247 21.8917 85.6447C26.4316 89.6129 32.2563 91.7998 38.2857 91.7998C44.315 91.7998 50.1397 89.6129 54.6797 85.6447C54.8811 85.467 55.0424 85.2485 55.1529 85.0037C55.2634 84.7588 55.3206 84.4933 55.3206 84.2247C55.3206 83.9561 55.2634 83.6905 55.1529 83.4457C55.0424 83.2008 54.8811 82.9823 54.6797 82.8047C50.9634 79.5279 46.3449 77.4493 41.4282 76.8406C47.9403 73.2243 47.1074 72.7888 47.6185 73.4137L52.3701 78.1092C53.406 79.2182 54.6934 80.0619 56.1237 80.5691C57.5539 81.0764 59.0852 81.2322 60.5883 81.0235C62.0914 80.8148 63.5223 80.2477 64.7603 79.3701C65.9984 78.4924 67.0073 77.3299 67.702 75.9806C68.3968 74.6312 68.7569 73.1346 68.7522 71.6169C68.7474 70.0991 68.3778 68.6048 67.6746 67.2598C66.9714 65.9149 65.9552 64.7588 64.7116 63.8889C63.4681 63.0191 62.0336 62.461 60.5292 62.2618C61.8922 60.9175 63.1795 59.5165 64.429 58.0775L68.0069 60.5578C68.9691 61.2261 70.0732 61.6621 71.2324 61.8313C72.3917 62.0005 73.5743 61.8985 74.6874 61.5331C75.8005 61.1678 76.8137 60.5491 77.6472 59.7257C78.4807 58.9024 79.1118 57.8969 79.491 56.7883C79.8701 55.6797 79.9869 54.4982 79.8321 53.3368C79.6773 52.1754 79.2552 51.0657 78.599 50.0951C77.9428 49.1245 77.0704 48.3194 76.0503 47.7432C75.0303 47.1669 73.8905 46.8352 72.7206 46.7742C73.5914 45.3921 74.4054 43.991 75.1627 42.552L78.2862 44.1803C79.3437 44.7304 80.5162 45.023 81.7081 45.0343C82.9 45.0456 84.0778 44.7754 85.1455 44.2455C86.2133 43.7157 87.141 42.9412 87.853 41.9851C88.565 41.029 89.0413 39.9183 89.243 38.7434C89.4448 37.5684 89.3664 36.3624 89.0142 35.2235C88.662 34.0846 88.046 33.0449 87.2162 32.189C86.3864 31.3332 85.3663 30.6854 84.2389 30.2982C83.1115 29.9111 81.9087 29.7957 80.7283 29.9613C81.2394 28.5602 81.6937 27.1212 82.1102 25.6823C84.1358 26.4207 86.2561 27.4052 88.8495 25.6823C89.762 25.1069 90.4918 24.2836 90.9535 23.3086C91.4152 22.3336 91.5897 21.2473 91.4566 20.1767C91.3236 19.1062 90.8884 18.0956 90.2021 17.2634C89.5158 16.4311 88.6067 15.8115 87.5812 15.4771C83.7951 14.095 84.2683 17.2569 84.8552 12.5992L86.8997 11.236C87.7242 10.6976 88.3946 9.95409 88.8451 9.07835C89.2955 8.20262 89.5106 7.22479 89.4692 6.24083C89.4277 5.25687 89.1312 4.30059 88.6087 3.46584C88.0862 2.63109 87.3557 1.94656 86.4888 1.47943C85.6219 1.0123 84.6485 0.778613 83.6641 0.801314C82.6797 0.824016 81.7181 1.10232 80.8736 1.60892C80.0292 2.11551 79.331 2.83299 78.8475 3.69094C78.364 4.54888 78.1119 5.51782 78.1158 6.50264Z" fill="white"></path><path d="M78.1159 6.50264C78.1159 8.66106 79.0813 9.66454 81.069 12.6182C81.069 13.3566 81.069 13.1104 80.2361 12.7886C79.1553 12.4074 77.9846 12.3621 76.8776 12.6587C75.7706 12.9553 74.7793 13.5799 74.0338 14.4504C73.2884 15.3209 72.8236 16.3966 72.7008 17.5362C72.5779 18.6757 72.8026 19.8258 73.3453 20.8353C74.5001 23.0695 76.3553 23.4671 78.3998 24.2055C78.5891 24.2055 78.8163 23.8079 77.5669 27.481C76.6309 26.1879 75.3104 25.2237 73.7939 24.7261C72.2773 24.2284 70.6424 24.2227 69.1224 24.7099C67.6025 25.197 66.2753 26.152 65.3304 27.4385C64.3855 28.725 63.8713 30.2773 63.861 31.8735C63.861 39.0493 71.9823 39.8067 71.6037 40.564C71.8687 40.6965 72.2663 40.1475 69.7106 44.4832C69.2187 43.4384 68.4944 42.5198 67.5931 41.7979C66.6918 41.0759 65.6373 40.5697 64.5103 40.318C63.3834 40.0662 62.2137 40.0756 61.0909 40.3453C59.9681 40.6151 58.9219 41.1381 58.0322 41.8744C57.1426 42.6107 56.4331 43.5407 55.958 44.5934C55.4829 45.646 55.2548 46.7934 55.2912 47.9477C55.3275 49.102 55.6274 50.2328 56.1677 51.2534C56.7081 52.2741 57.4748 53.1576 58.409 53.8364L61.3243 55.7297C60.2831 56.9036 59.223 58.0586 58.125 59.1756C58.0548 57.6563 57.6196 56.1762 56.8562 54.8608C56.0928 53.5453 55.0238 52.4331 53.7395 51.6185C52.4553 50.8038 50.9937 50.3106 49.4785 50.1807C47.9633 50.0507 46.4391 50.2878 45.035 50.8719C43.6308 51.456 42.3881 52.3698 41.4119 53.5361C40.4357 54.7024 39.7549 56.0867 39.427 57.5719C39.0992 59.0571 39.1339 60.5995 39.5284 62.0684C39.9229 63.5373 40.6654 64.8896 41.6932 66.0106L44.9871 70.1192C37.9413 74.8102 30.2243 78.4044 22.0999 80.7788C27.0414 76.2637 30.1367 70.0789 30.7891 63.4168C31.2056 57.3202 7.58008 64.9125 4.51331 83.9028L2.39307 84.13C1.891 84.13 1.40949 84.3295 1.05447 84.6845C0.699448 85.0396 0.5 85.5212 0.5 86.0234C0.5 86.5255 0.699448 87.0071 1.05447 87.3622C1.40949 87.7172 1.891 87.9167 2.39307 87.9167C4.72155 87.822 8.31838 87.5191 11.2148 87.0836C24.4663 85.1903 20.3204 84.2247 21.8917 85.6447C26.4316 89.6129 32.2563 91.7998 38.2857 91.7998C44.315 91.7998 50.1397 89.6129 54.6796 85.6447C54.8811 85.467 55.0424 85.2485 55.1529 85.0037C55.2634 84.7588 55.3206 84.4933 55.3206 84.2247C55.3206 83.956 55.2634 83.6905 55.1529 83.4457C55.0424 83.2008 54.8811 82.9823 54.6796 82.8047C50.9634 79.5279 46.3449 77.4493 41.4282 76.8406C47.9403 73.2243 47.1074 72.7888 47.6185 73.4136L52.3701 78.1091C53.406 79.2182 54.6934 80.0619 56.1237 80.5691C57.5539 81.0763 59.0852 81.2322 60.5883 81.0235C62.0914 80.8148 63.5223 80.2477 64.7603 79.3701C65.9984 78.4924 67.0073 77.3299 67.702 75.9806C68.3968 74.6312 68.7569 73.1346 68.7522 71.6169C68.7474 70.0991 68.3778 68.6048 67.6746 67.2598C66.9714 65.9149 65.9552 64.7588 64.7116 63.8889C63.4681 63.0191 62.0336 62.461 60.5292 62.2618C61.8922 60.9175 63.1795 59.5164 64.429 58.0775L68.0069 60.5578C68.9691 61.2261 70.0732 61.6621 71.2324 61.8313C72.3917 62.0005 73.5743 61.8985 74.6874 61.5331C75.8005 61.1678 76.8137 60.5491 77.6472 59.7257C78.4807 58.9024 79.1118 57.8969 79.491 56.7883C79.8701 55.6797 79.9869 54.4982 79.8321 53.3368C79.6773 52.1754 79.2552 51.0657 78.599 50.0951C77.9428 49.1245 77.0704 48.3194 76.0503 47.7432C75.0303 47.1669 73.8905 46.8352 72.7206 46.7742C73.5914 45.3921 74.4054 43.991 75.1627 42.552L78.2862 44.1803C79.3437 44.7304 80.5162 45.023 81.7081 45.0343C82.9 45.0456 84.0778 44.7754 85.1455 44.2455C86.2133 43.7157 87.141 42.9412 87.853 41.9851C88.565 41.029 89.0413 39.9183 89.243 38.7434C89.4448 37.5684 89.3664 36.3624 89.0142 35.2235C88.662 34.0846 88.046 33.0449 87.2162 32.189C86.3864 31.3332 85.3663 30.6854 84.2389 30.2982C83.1115 29.9111 81.9087 29.7957 80.7283 29.9613C81.2394 28.5602 81.6937 27.1212 82.1102 25.6823C84.1358 26.4207 86.256 27.4052 88.8495 25.6823C89.762 25.1069 90.4918 24.2836 90.9535 23.3086C91.4152 22.3336 91.5897 21.2473 91.4566 20.1767C91.3236 19.1062 90.8884 18.0956 90.2021 17.2634C89.5158 16.4311 88.6067 15.8115 87.5812 15.4771C83.7951 14.095 84.2683 17.2569 84.8552 12.5992L86.8997 11.236C87.7242 10.6976 88.3946 9.95409 88.8451 9.07835C89.2956 8.20262 89.5106 7.22479 89.4692 6.24083C89.4277 5.25686 89.1312 4.30059 88.6087 3.46584C88.0862 2.63109 87.3557 1.94656 86.4888 1.47943C85.6219 1.0123 84.6485 0.778613 83.6641 0.801314C82.6797 0.824016 81.7181 1.10232 80.8736 1.60892C80.0292 2.11551 79.331 2.83299 78.8475 3.69094C78.364 4.54888 78.1119 5.51782 78.1159 6.50264ZM8.45089 83.5431C9.49275 79.1255 11.7568 75.0905 14.9841 71.8996C18.2114 68.7086 22.2715 66.4907 26.7001 65.4994C24.7502 75.0419 16.2693 82.5964 8.45089 83.5431ZM50.4581 84.13C46.9067 86.5975 42.6857 87.92 38.3614 87.92C34.0371 87.92 29.8161 86.5975 26.2647 84.13C29.8171 81.665 34.0377 80.3441 38.3614 80.3441C42.6851 80.3441 46.9056 81.665 50.4581 84.13ZM59.5638 65.8592C60.6854 65.9099 61.7669 66.292 62.6715 66.9571C63.5761 67.6223 64.2633 68.5408 64.6462 69.5964C65.0291 70.6521 65.0905 71.7976 64.8227 72.8881C64.5549 73.9787 63.9699 74.9654 63.1417 75.7235C62.5924 76.2285 61.949 76.6202 61.2482 76.8763C60.5475 77.1325 59.8032 77.248 59.0578 77.2164C58.3124 77.1847 57.5805 77.0065 56.904 76.6919C56.2275 76.3773 55.6196 75.9324 55.1151 75.3827L50.761 71.0848C55.9101 67.0899 56.8567 65.7645 59.5638 65.8592ZM52.5215 63.8712L48.035 67.8661L44.5517 63.6061C44.0421 63.0591 43.6452 62.417 43.3836 61.7166C43.1221 61.0162 43.0011 60.2711 43.0274 59.5239C43.0538 58.7767 43.2271 58.042 43.5373 57.3618C43.8476 56.6815 44.2888 56.0691 44.8357 55.5593C45.3826 55.0496 46.0246 54.6527 46.7249 54.3911C47.4252 54.1295 48.1702 54.0084 48.9173 54.0348C49.6644 54.0612 50.399 54.2345 51.0791 54.5448C51.7592 54.8551 52.3716 55.2963 52.8812 55.8433C53.3849 56.394 53.7752 57.0384 54.0297 57.7399C54.2842 58.4415 54.3981 59.1863 54.3647 59.9318C54.3312 60.6773 54.1513 61.409 53.835 62.0849C53.5188 62.7608 53.0725 63.3678 52.5215 63.8712ZM69.1995 52.0377C69.662 51.3749 70.3245 50.8775 71.09 50.6182C71.8555 50.359 72.6838 50.3516 73.4538 50.597C74.2239 50.8424 74.8952 51.3279 75.3695 51.9823C75.8439 52.6367 76.0965 53.4257 76.0903 54.234C76.0953 54.779 75.979 55.3183 75.7498 55.8128C75.5206 56.3073 75.1842 56.7446 74.7651 57.093C72.0959 59.3271 69.881 57.093 67.0603 55.1996L69.1995 52.0377ZM66.4735 47.8723C66.3599 49.1598 65.8677 49.6142 63.6717 52.814C60.8321 50.9206 59.3934 50.2958 58.9958 48.3267C58.966 47.8295 59.0344 47.3312 59.1971 46.8603C59.3598 46.3895 59.6137 45.9553 59.9442 45.5826C60.2746 45.2099 60.6753 44.9059 61.1232 44.688C61.5712 44.4702 62.0576 44.3427 62.5548 44.3128C63.052 44.283 63.5502 44.3514 64.021 44.5141C64.4918 44.6769 64.9259 44.9308 65.2986 45.2613C65.6712 45.5918 65.9752 45.9925 66.193 46.4405C66.4108 46.8885 66.5383 47.3751 66.5681 47.8723H66.4735ZM78.6648 35.2058C78.9875 34.7495 79.4072 34.3702 79.8938 34.0953C80.3804 33.8204 80.9218 33.6566 81.4791 33.6157C82.0365 33.5748 82.596 33.6578 83.1174 33.8588C83.6389 34.0598 84.1094 34.3737 84.4952 34.7781C84.8811 35.1825 85.1726 35.6673 85.3489 36.1976C85.5252 36.728 85.5819 37.2909 85.515 37.8458C85.448 38.4007 85.2591 38.9339 84.9617 39.4072C84.6644 39.8804 84.2659 40.2819 83.7951 40.5829C81.4477 42.1166 79.5924 40.5829 76.8664 39.144C77.529 37.7997 78.1159 36.5122 78.6648 35.2058ZM74.8787 33.6912L73.1371 37.0234L69.7863 35.3005C69.1203 34.9564 68.5713 34.4223 68.2091 33.7659C67.8468 33.1095 67.6875 32.3603 67.7514 31.6133C67.8153 30.8662 68.0995 30.155 68.568 29.5696C69.0365 28.9843 69.6682 28.5512 70.383 28.3253C71.0978 28.0994 71.8636 28.0908 72.5833 28.3007C73.3031 28.5105 73.9443 28.9293 74.4258 29.504C74.9073 30.0786 75.2073 30.7833 75.288 31.5288C75.3686 32.2742 75.2262 33.0268 74.8787 33.6912ZM83.9844 20.1726C84.0722 19.6705 84.3559 19.2238 84.7731 18.9309C85.1902 18.6379 85.7066 18.5227 86.2087 18.6106C86.7108 18.6985 87.1574 18.9822 87.4503 19.3995C87.7432 19.8167 87.8584 20.3332 87.7705 20.8353C87.767 21.1373 87.6912 21.4341 87.5496 21.7009C87.408 21.9677 87.2046 22.1968 86.9565 22.3689C85.9721 23.0316 85.3284 22.634 83.4354 21.9524L83.9844 20.1726ZM79.0624 16.3859C79.3746 16.501 79.651 16.6963 79.8637 16.9523C80.0764 17.2082 80.2179 17.5157 80.2739 17.8438C80.1376 18.783 79.8963 19.7038 79.5546 20.5892L77.6615 19.9454C77.187 19.7722 76.8008 19.4175 76.5878 18.9595C76.3748 18.5014 76.3525 17.9775 76.5257 17.503C76.6989 17.0285 77.0535 16.6422 77.5115 16.4292C77.9694 16.2161 78.4933 16.1938 78.9677 16.367L79.0624 16.3859ZM85.461 5.48023C85.7349 5.89765 85.833 6.40642 85.7337 6.89577C85.6344 7.38513 85.3459 7.81545 84.9309 8.09306L83.3596 9.15333L82.3185 7.56292C82.1528 7.16264 82.1295 6.71765 82.2522 6.30221C82.375 5.88677 82.6365 5.52601 82.9931 5.28011C83.3497 5.03422 83.7799 4.91807 84.2117 4.95104C84.6436 4.98401 85.0512 5.16412 85.3663 5.4613L85.461 5.48023Z" fill="#64737F"></path></svg>