<?xml version="1.0" encoding="UTF-8"?>
<svg version="1.1" xmlns="http://www.w3.org/2000/svg" xmlns:xlink="http://www.w3.org/1999/xlink" width="29px" viewBox="0 0 91 90" fill="none"><path d="M87.7164 84.4086H69.1975V68.5103H87.7164C88.7007 68.5103 89.6019 67.9588 90.0498 67.0824C90.4978 66.2059 90.4169 65.1526 89.8405 64.3547L77.6939 47.5455H82.3005C83.267 47.5455 84.155 47.0135 84.6112 46.1615C85.067 45.3095 85.0172 44.2755 84.481 43.4714L73.2205 26.5808H77.0593C78.0501 26.5808 78.9559 26.022 79.4009 25.1368C79.8457 24.2516 79.7533 23.1911 79.1621 22.3962L63.4385 1.2567C62.9439 0.59194 62.1642 0.200073 61.3358 0.200073C60.5073 0.200073 59.7276 0.59194 59.233 1.2567L45.6122 19.5693L31.9914 1.2567C31.4969 0.59194 30.717 0.200073 29.8886 0.200073C29.0601 0.200073 28.2802 0.59194 27.7858 1.2567L12.0622 22.3962C11.4709 23.1911 11.3784 24.2516 11.8234 25.1368C12.2682 26.022 13.1742 26.5808 14.165 26.5808H18.0038L6.7433 43.4714C6.2073 44.2755 6.15733 45.3095 6.61332 46.1615C7.0693 47.0135 7.95733 47.5455 8.92381 47.5455H13.5305L1.38383 64.3547C0.807295 65.1524 0.726406 66.2059 1.17435 67.0824C1.62248 67.9588 2.52361 68.5103 3.50791 68.5103H22.0268V84.4086H3.50791C2.06064 84.4086 0.887311 85.5819 0.887311 87.0292C0.887311 88.4765 2.06064 89.6498 3.50791 89.6498C6.11383 89.6498 86.3855 89.6498 87.7164 89.6498C89.1637 89.6498 90.337 88.4765 90.337 87.0292C90.337 85.5819 89.1637 84.4086 87.7164 84.4086ZM49.451 26.5808L45.6122 32.3389L41.7733 26.5808C44.2149 26.5808 47.0095 26.5808 49.451 26.5808ZM32.5092 84.4086H27.268V68.5103H32.5092V84.4086ZM53.474 84.4086H37.7504V68.5103H53.474V84.4086ZM63.9564 84.4086H58.7152V68.5103H63.9564V84.4086Z" fill="white"></path><path d="M87.7164 84.4086H69.1975V68.5103H87.7164C88.7007 68.5103 89.6019 67.9588 90.0498 67.0824C90.4978 66.2059 90.4169 65.1526 89.8405 64.3547L77.6939 47.5455H82.3005C83.267 47.5455 84.155 47.0135 84.6112 46.1615C85.067 45.3095 85.0172 44.2755 84.481 43.4714L73.2205 26.5808H77.0593C78.0501 26.5808 78.9559 26.022 79.4009 25.1368C79.8457 24.2516 79.7533 23.1911 79.1621 22.3962L63.4385 1.2567C62.9439 0.59194 62.1642 0.200073 61.3358 0.200073C60.5073 0.200073 59.7276 0.59194 59.233 1.2567L45.6122 19.5693L31.9914 1.2567C31.4969 0.59194 30.717 0.200073 29.8886 0.200073C29.0601 0.200073 28.2802 0.59194 27.7858 1.2567L12.0622 22.3962C11.4709 23.1911 11.3784 24.2516 11.8234 25.1368C12.2682 26.022 13.1742 26.5808 14.165 26.5808H18.0038L6.7433 43.4714C6.2073 44.2755 6.15733 45.3095 6.61332 46.1615C7.0693 47.0135 7.95733 47.5455 8.92381 47.5455H13.5305L1.38383 64.3547C0.807295 65.1524 0.726406 66.2059 1.17435 67.0824C1.62248 67.9588 2.52361 68.5103 3.50791 68.5103H22.0268V84.4086H3.50791C2.06064 84.4086 0.887311 85.5819 0.887311 87.0292C0.887311 88.4765 2.06064 89.6498 3.50791 89.6498C6.11383 89.6498 86.3855 89.6498 87.7164 89.6498C89.1637 89.6498 90.337 88.4765 90.337 87.0292C90.337 85.5819 89.1637 84.4086 87.7164 84.4086ZM49.451 26.5808L45.6122 32.3389L41.7733 26.5808C44.2149 26.5808 47.0095 26.5808 49.451 26.5808ZM8.63484 63.2691L20.7813 46.4599C21.3578 45.6622 21.4387 44.6087 20.9908 43.7322C20.5428 42.8559 19.6415 42.3043 18.6574 42.3043H13.8205L25.081 25.4137C25.617 24.6095 25.667 23.5756 25.211 22.7236C24.755 21.8715 23.867 21.3396 22.9005 21.3396H19.3803L29.8886 7.21174L40.397 21.3396H36.8768C35.9104 21.3396 35.0223 21.8715 34.5663 22.7236C34.1104 23.5756 34.1603 24.6095 34.6963 25.4137L43.4179 38.4959C43.4227 38.5034 43.428 38.5109 43.4331 38.5186L45.9567 42.3043H41.1198C40.1381 42.3043 39.2387 42.8529 38.7897 43.7257C38.3405 44.5986 38.4169 45.6493 38.9873 46.448L51.0024 63.2691C37.6646 63.2691 21.9976 63.2691 8.63484 63.2691ZM32.5092 84.4086H27.268V68.5103H32.5092V84.4086ZM53.474 84.4086H37.7504V68.5103H53.474V84.4086ZM46.2121 47.5455H50.8534C51.8198 47.5455 52.7079 47.0135 53.164 46.1615C53.6198 45.3095 53.57 44.2755 53.0339 43.4714L48.7618 37.0633L56.5282 25.4139C57.0642 24.6097 57.1141 23.5758 56.6583 22.7238C56.2024 21.8717 55.3143 21.3397 54.3477 21.3397H50.8275L61.3358 7.21174L71.844 21.3396H68.3238C67.3574 21.3396 66.4693 21.8715 66.0132 22.7236C65.5574 23.5756 65.6073 24.6095 66.1433 25.4137L77.4039 42.3043H72.5669C71.5826 42.3043 70.6815 42.8559 70.2336 43.7322C69.7858 44.6087 69.8663 45.662 70.4428 46.4599L82.5895 63.2691C80.83 63.2691 61.4194 63.2691 57.4431 63.2691L46.2121 47.5455ZM63.9564 84.4086H58.7152V68.5103H63.9564V84.4086Z" fill="#64737F"></path></svg>