<?xml version="1.0" encoding="UTF-8"?>
<svg version="1.1" xmlns="http://www.w3.org/2000/svg" xmlns:xlink="http://www.w3.org/1999/xlink"  width="26px" viewBox="0 0 85 98" fill="none"><path d="M84.4245 28.4239C84.0995 27.9427 83.4919 27.048 80.5528 26.6988C82.8487 22.4446 84.5911 17.151 82.9808 15.2123C82.8074 15.001 82.6167 14.8275 82.4146 14.6828C83.3265 12.8452 83.8755 10.8685 84.204 9.26171C85.41 3.34788 84.1696 2.10861 83.7055 1.64689C82.8212 0.76137 81.66 0.638476 80.5344 0.638476C78.7439 0.638476 74.3438 1.10134 70.68 2.92062C70.5146 2.7001 70.332 2.52782 70.1413 2.37162C69.5647 1.89383 68.8446 1.65149 68.0004 1.65149C66.5211 1.65149 62.4691 2.71274 58.6479 4.72728C58.4273 3.10898 57.9369 1.61014 56.9354 0.929057C56.4013 0.56497 55.7627 0.378906 55.038 0.378906C53.3967 0.378906 49.339 1.50677 46.0197 3.64765C45.6556 3.06649 45.272 2.84827 44.9906 2.68747C44.522 2.41756 43.9948 2.27974 43.4263 2.27974C41.7919 2.27974 37.4987 4.08984 34.2908 6.86471C33.5936 5.82298 32.9608 5.61625 32.5898 5.49565C32.3038 5.40262 31.957 5.34864 31.656 5.34864C29.8 5.34864 25.8536 8.19472 23.2016 11.6139C22.9754 11.4956 22.7526 11.4244 22.5366 11.367C22.2966 11.3038 22.0175 11.2682 21.7694 11.2682C18.6672 11.2682 12.8763 18.8784 12.8189 18.9542C4.19332 30.566 -7.49996 56.4219 7.25762 74.0738C1.42994 80.3724 -0.183763 87.6254 2.49119 95.656C2.89203 96.8597 4.01185 97.6211 5.21552 97.6211C5.51644 97.6211 5.8208 97.5729 6.12287 97.473C7.62745 96.9711 8.44177 95.3459 7.93986 93.8413C5.98045 87.9573 7.08534 82.8096 11.3143 78.1385C16.9203 82.8188 23.7357 85.1928 31.6204 85.1939H31.6227C48.4328 85.1939 63.5177 74.6549 66.3695 72.5428C67.7902 71.4896 74.8446 66.0719 73.9832 62.8147C73.9269 62.6022 73.8568 62.3874 73.7454 62.1669C76.6512 59.8951 78.8369 56.8193 79.4893 55.5387C79.7017 55.124 80.2657 54.0203 79.8533 52.7557C79.7236 52.3572 79.5203 51.7301 78.49 51.0456C80.9491 48.1857 82.5007 44.5885 82.8809 43.1666C83.0026 42.7118 83.3265 41.507 82.673 40.3814C82.5088 40.0931 82.2894 39.7026 81.7059 39.3328C83.5677 36.4373 84.5486 33.1008 84.8254 31.6215C85.0252 30.5568 85.1137 29.4289 84.4245 28.4239ZM73.9407 18.0193C74.3863 19.3229 75.7083 20.1315 77.059 19.9351C77.1359 19.9236 77.2129 19.9133 77.2898 19.9041C76.5111 22.2287 75.0708 25.5089 73.0816 27.5901C72.2443 28.4676 72.0479 29.7746 72.5888 30.8588C73.1321 31.9442 74.2944 32.5644 75.5004 32.4254C76.5306 32.3014 77.7412 32.2704 78.7083 32.3186C78.0007 34.3757 76.6351 37.1896 75.0318 38.2864L74.6953 38.515C74.6447 38.5483 74.593 38.5816 74.5402 38.6103C73.4169 39.2466 72.8564 40.5548 73.1711 41.8079C73.4847 43.0598 74.5965 43.9487 75.8874 43.9798C76.0425 43.9843 76.1918 43.9889 76.3388 43.9958C75.3924 45.7921 73.8947 48.0238 72.296 48.9437L71.8848 49.1792C71.7803 49.2401 71.6734 49.2894 71.5655 49.3331C70.3917 49.8028 69.6647 50.9847 69.7726 52.2446C69.8806 53.5046 70.8017 54.544 72.0375 54.8059C72.3385 54.8702 72.6233 54.9368 72.8897 55.0057C71.577 56.5597 69.6313 58.418 67.827 59.0004L67.4434 59.1221C67.3745 59.1462 67.3044 59.1611 67.2366 59.1784C65.9824 59.4758 65.0808 60.5704 65.0292 61.8579C64.9821 63.0444 65.67 64.1286 66.7382 64.5995C65.6965 65.6561 64.3377 66.9023 62.9503 67.9291C58.7478 71.0405 52.7157 74.4482 46.1047 76.7476L44.8953 74.0175C44.7023 73.5811 44.1923 73.387 43.7582 73.5788C43.3229 73.7717 43.1277 74.2794 43.3206 74.7147L44.4646 77.2943C43.0668 77.7342 41.6518 78.1201 40.223 78.4382L38.9757 74.0899C38.8436 73.6327 38.3658 73.3628 37.9098 73.4995C37.4527 73.6304 37.1886 74.1071 37.3195 74.5654L38.5301 78.7816C37.053 79.0527 35.5703 79.2491 34.0955 79.3548L33.5982 73.9038C33.5569 73.4317 33.148 73.0688 32.6633 73.1239C32.1901 73.1676 31.841 73.5857 31.8835 74.06L32.3716 79.4271C32.1201 79.4329 31.8685 79.4512 31.6181 79.4512C30.3352 79.4512 29.1017 79.3479 27.89 79.1974L28.2759 75.7438C28.3287 75.2717 27.9888 74.8456 27.5156 74.7928C27.0573 74.7491 26.6185 75.0799 26.5646 75.5531L26.1844 78.9551C21.1837 78.0156 16.8376 75.7323 13.2277 72.1213C-1.63552 57.2569 9.47545 33.0847 17.4279 22.378C18.4547 20.9963 19.6963 19.6445 20.7484 18.6074C21.2181 19.6709 22.2954 20.3486 23.4761 20.3153C24.7591 20.2705 25.8559 19.3792 26.1637 18.133C26.181 18.0618 26.197 17.9918 26.2212 17.9205C26.2315 17.8907 26.2464 17.8367 26.2568 17.8057L26.3659 17.4692C26.9367 15.6947 28.7904 13.7605 30.3433 12.4546C30.4122 12.7211 30.4788 13.0059 30.5431 13.3069C30.8061 14.545 31.8479 15.465 33.1078 15.5729C34.3746 15.6774 35.5507 14.9493 36.0182 13.7743C36.0607 13.6687 36.1101 13.563 36.1618 13.4734L36.3857 13.0863C37.3183 11.4646 39.5534 9.95658 41.352 9.00788C41.3589 9.1526 41.3635 9.30306 41.3681 9.45811C41.3979 10.7514 42.2904 11.8643 43.5457 12.1756C44.8022 12.4903 46.1093 11.9217 46.7433 10.7939C46.7697 10.7456 46.8018 10.6974 46.8397 10.64L47.0694 10.3034C48.1628 8.70237 50.9848 7.33676 53.0304 6.63155C53.0729 7.55613 53.0614 8.68399 52.9212 9.84287C52.7765 11.0465 53.4025 12.2123 54.4867 12.7544C55.5721 13.2965 56.8803 13.1013 57.7543 12.264C59.8412 10.2724 63.1283 8.83101 65.4449 8.05345C65.4346 8.1304 65.4242 8.2108 65.4128 8.29119C65.2221 9.65681 66.0295 10.965 67.3366 11.4083C68.639 11.8471 70.0781 11.3015 70.7581 10.1001C70.866 9.90834 71.0016 9.73031 71.1566 9.57411L71.4782 9.25367C72.969 7.76516 76.2883 6.81188 78.8426 6.49603C78.5383 8.80344 77.6746 12.2835 76.0126 13.9455L75.7703 14.1889C75.6118 14.3474 75.4326 14.483 75.2374 14.5944C74.0406 15.2789 73.4962 16.7157 73.9407 18.0193Z" fill="#64737F"></path><path d="M63.1922 19.4503C63.1922 19.4503 62.417 20.0774 61.033 21.2524C60.3071 21.8692 60.2187 22.9557 60.8343 23.6804C61.1754 24.0824 61.6612 24.288 62.1493 24.288C62.5421 24.288 62.9395 24.1536 63.2634 23.8791C64.5992 22.7443 65.3503 22.1356 65.3595 22.1287C66.1003 21.5303 66.2129 20.445 65.6156 19.7065C65.0184 18.968 63.933 18.8519 63.1922 19.4503Z" fill="#64737F"></path><path d="M55.7911 25.8029C53.9144 27.466 51.4473 29.7378 48.8321 32.1922C48.7827 31.1447 48.8895 30.0398 49.1836 28.8718C49.4167 27.9483 48.8562 27.0134 47.934 26.7814C47.0071 26.5483 46.0756 27.1076 45.8436 28.031C45.2108 30.5394 45.2004 32.8962 45.8057 35.0543C43.8314 36.9368 41.8616 38.8376 40.0722 40.5961C36.8804 43.7327 33.7725 46.9188 30.9528 49.8774C29.5941 46.294 29.5987 42.2281 31.0022 37.7615C31.2882 36.8541 30.784 35.887 29.8755 35.6022C28.9647 35.3082 28.0011 35.8216 27.7162 36.7289C25.936 42.3958 26.1198 47.8031 28.2491 52.3674C28.287 52.4478 28.3433 52.5121 28.3916 52.5834C22.5845 58.7705 18.5176 63.4118 18.4555 63.4841C17.8273 64.2008 17.902 65.2885 18.6186 65.9145C18.9448 66.2004 19.3503 66.3406 19.7511 66.3406C20.2312 66.3406 20.709 66.1407 21.049 65.7514C21.088 65.7077 22.5983 63.9838 25.0688 61.2629C25.1745 61.3467 25.2871 61.4248 25.4157 61.4834C28.9073 63.1109 32.7526 63.9263 36.815 63.9263C40.1009 63.9263 43.5305 63.3923 47.0289 62.323C47.9386 62.0439 48.4497 61.0814 48.1706 60.1706C47.8915 59.261 46.929 58.7487 46.0193 59.0278C39.1809 61.1204 32.9547 60.9654 27.4923 58.6132C30.7047 55.1251 34.851 50.7147 39.3188 46.2113C39.3911 46.2492 39.46 46.2882 39.5393 46.3181C41.4757 47.0233 43.527 47.3759 45.6759 47.3759C47.1564 47.3759 48.6863 47.2082 50.2517 46.8728C51.1832 46.673 51.7747 45.7564 51.5748 44.8273C51.3738 43.8958 50.4493 43.3078 49.5293 43.5042C46.8589 44.0773 44.354 44.0635 42.0546 43.4835C42.1982 43.3399 42.344 43.1963 42.4899 43.0528C47.5848 38.0451 54.1395 31.8729 58.079 28.379C58.7911 27.7473 58.8566 26.6585 58.2249 25.9476C57.592 25.2366 56.5009 25.1712 55.7911 25.8029Z" fill="#64737F"></path></svg>