<svg width="147" height="28" viewBox="0 0 147 28" fill="none" xmlns="http://www.w3.org/2000/svg">
<path d="M5.67 12.126C4.65267 12.126 3.77067 11.916 3.024 11.496C2.27733 11.076 1.70333 10.4833 1.302 9.718C0.900667 8.94333 0.7 8.038 0.7 7.002C0.7 5.97533 0.900667 5.07933 1.302 4.314C1.70333 3.54867 2.27733 2.956 3.024 2.536C3.77067 2.116 4.65267 1.906 5.67 1.906C6.33267 1.906 6.96267 2.00867 7.56 2.214C8.15733 2.41 8.652 2.69 9.044 3.054L8.358 4.622C7.91 4.286 7.47133 4.04333 7.042 3.894C6.622 3.73533 6.17867 3.656 5.712 3.656C4.82533 3.656 4.13933 3.94067 3.654 4.51C3.16867 5.07 2.926 5.90067 2.926 7.002C2.926 8.10333 3.16867 8.94333 3.654 9.522C4.13933 10.0913 4.82533 10.376 5.712 10.376C6.17867 10.376 6.622 10.3013 7.042 10.152C7.47133 9.99333 7.91 9.746 8.358 9.41L9.044 10.978C8.652 11.342 8.15733 11.6267 7.56 11.832C6.96267 12.028 6.33267 12.126 5.67 12.126ZM10.778 12V2.032H12.962V10.222H17.414V12H10.778ZM22.9525 12.126C21.9538 12.126 21.0905 11.916 20.3625 11.496C19.6345 11.076 19.0698 10.4833 18.6685 9.718C18.2765 8.95267 18.0805 8.04733 18.0805 7.002C18.0805 5.966 18.2765 5.06533 18.6685 4.3C19.0698 3.53467 19.6345 2.94667 20.3625 2.536C21.0905 2.116 21.9538 1.906 22.9525 1.906C23.9511 1.906 24.8098 2.116 25.5285 2.536C26.2565 2.94667 26.8165 3.53467 27.2085 4.3C27.6005 5.06533 27.7965 5.966 27.7965 7.002C27.7965 8.04733 27.6005 8.95267 27.2085 9.718C26.8165 10.4833 26.2565 11.076 25.5285 11.496C24.8098 11.916 23.9511 12.126 22.9525 12.126ZM22.9525 10.432C23.7738 10.432 24.4225 10.1427 24.8985 9.564C25.3838 8.976 25.6265 8.122 25.6265 7.002C25.6265 5.882 25.3838 5.03733 24.8985 4.468C24.4225 3.88933 23.7738 3.6 22.9525 3.6C22.1218 3.6 21.4685 3.88933 20.9925 4.468C20.5165 5.03733 20.2785 5.882 20.2785 7.002C20.2785 8.13133 20.5165 8.98533 20.9925 9.564C21.4685 10.1427 22.1218 10.432 22.9525 10.432ZM33.1894 12.126C32.6854 12.126 32.1907 12.084 31.7054 12C31.2294 11.9067 30.7814 11.776 30.3614 11.608C29.9414 11.4307 29.5774 11.2207 29.2694 10.978L29.9834 9.41C30.478 9.75533 30.9914 10.012 31.5234 10.18C32.0554 10.348 32.6154 10.432 33.2034 10.432C33.838 10.432 34.3234 10.3293 34.6594 10.124C35.0047 9.91867 35.1774 9.634 35.1774 9.27C35.1774 9.05533 35.1074 8.87333 34.9674 8.724C34.8274 8.57467 34.6034 8.444 34.2954 8.332C33.9874 8.22 33.5767 8.108 33.0634 7.996C32.4194 7.86533 31.8687 7.71133 31.4114 7.534C30.954 7.35667 30.5807 7.15133 30.2914 6.918C30.0114 6.68467 29.806 6.414 29.6754 6.106C29.5447 5.78867 29.4794 5.42467 29.4794 5.014C29.4794 4.426 29.6427 3.89867 29.9694 3.432C30.3054 2.956 30.7674 2.58267 31.3554 2.312C31.9527 2.04133 32.648 1.906 33.4414 1.906C33.9174 1.906 34.3794 1.95267 34.8274 2.046C35.2847 2.13933 35.7047 2.27 36.0874 2.438C36.47 2.606 36.792 2.81133 37.0534 3.054L36.3534 4.622C35.9054 4.27667 35.4387 4.02 34.9534 3.852C34.468 3.684 33.9734 3.6 33.4694 3.6C32.9 3.6 32.4474 3.71667 32.1114 3.95C31.7754 4.174 31.6074 4.482 31.6074 4.874C31.6074 5.08867 31.6727 5.27067 31.8034 5.42C31.934 5.56933 32.1487 5.70467 32.4474 5.826C32.7554 5.938 33.1754 6.05467 33.7074 6.176C34.3327 6.30667 34.874 6.46067 35.3314 6.638C35.7887 6.81533 36.162 7.02067 36.4514 7.254C36.75 7.478 36.9694 7.744 37.1094 8.052C37.2494 8.35067 37.3194 8.696 37.3194 9.088C37.3194 9.71333 37.156 10.2547 36.8294 10.712C36.5027 11.16 36.0314 11.51 35.4154 11.762C34.7994 12.0047 34.0574 12.126 33.1894 12.126ZM39.1045 12V2.032H45.9785V3.726H41.2465V6.078H45.6845V7.786H41.2465V10.306H45.9785V12H39.1045ZM47.6854 12V2.032H51.5494C52.6414 2.032 53.5747 2.228 54.3494 2.62C55.1334 3.012 55.7307 3.58133 56.1414 4.328C56.5614 5.06533 56.7714 5.95667 56.7714 7.002C56.7714 8.05667 56.5661 8.95733 56.1554 9.704C55.7447 10.4413 55.1474 11.0107 54.3634 11.412C53.5887 11.804 52.6507 12 51.5494 12H47.6854ZM49.8694 10.236H51.3954C52.4594 10.236 53.2574 9.97 53.7894 9.438C54.3214 8.89667 54.5874 8.08467 54.5874 7.002C54.5874 4.86467 53.5234 3.796 51.3954 3.796H49.8694V10.236Z" fill="#E11F2F"/>
<path d="M1.204 26V16.032H5.25C6.286 16.032 7.09333 16.284 7.672 16.788C8.25067 17.2827 8.54 17.9687 8.54 18.846C8.54 19.7047 8.246 20.3907 7.658 20.904C7.07933 21.408 6.27667 21.66 5.25 21.66H2.492V26H1.204ZM2.492 20.61H5.124C5.84267 20.61 6.37933 20.456 6.734 20.148C7.098 19.84 7.28 19.406 7.28 18.846C7.28 18.2767 7.098 17.8427 6.734 17.544C6.37933 17.236 5.84267 17.082 5.124 17.082H2.492V20.61ZM10.2874 26V20.932C10.2874 20.6053 10.2781 20.2787 10.2594 19.952C10.2501 19.616 10.2221 19.2847 10.1754 18.958H11.3794L11.5334 20.708L11.3794 20.652C11.5008 20.036 11.7761 19.574 12.2054 19.266C12.6441 18.9487 13.1341 18.79 13.6754 18.79C13.8061 18.79 13.9228 18.7993 14.0254 18.818C14.1374 18.8273 14.2401 18.846 14.3334 18.874L14.3194 20.036C14.0861 19.952 13.8248 19.91 13.5354 19.91C13.0594 19.91 12.6768 20.0127 12.3874 20.218C12.0981 20.4233 11.8881 20.6847 11.7574 21.002C11.6268 21.3193 11.5614 21.66 11.5614 22.024V26H10.2874ZM21.3427 25.174C21.0347 25.4633 20.638 25.692 20.1527 25.86C19.6674 26.0187 19.1727 26.098 18.6687 26.098C17.9314 26.098 17.2967 25.9533 16.7647 25.664C16.2327 25.3747 15.822 24.9593 15.5327 24.418C15.2434 23.8673 15.0987 23.214 15.0987 22.458C15.0987 21.73 15.2387 21.0907 15.5187 20.54C15.808 19.9893 16.2047 19.56 16.7087 19.252C17.2127 18.9347 17.7914 18.776 18.4447 18.776C19.0794 18.776 19.6207 18.916 20.0687 19.196C20.526 19.476 20.8714 19.8773 21.1047 20.4C21.3474 20.9133 21.4687 21.5293 21.4687 22.248V22.472H16.2187V21.688H20.7407L20.3487 22.192C20.3674 21.3987 20.2134 20.792 19.8867 20.372C19.56 19.952 19.084 19.742 18.4587 19.742C17.8054 19.742 17.292 19.9753 16.9187 20.442C16.5547 20.8993 16.3727 21.5433 16.3727 22.374C16.3727 23.27 16.5687 23.9467 16.9607 24.404C17.3527 24.852 17.9314 25.076 18.6967 25.076C19.1074 25.076 19.4994 25.0107 19.8727 24.88C20.246 24.74 20.6007 24.5347 20.9367 24.264L21.3427 25.174ZM23.4557 22.752V21.716H27.4737V22.752H23.4557ZM32.914 26.098C32.2327 26.098 31.6354 25.9487 31.122 25.65C30.618 25.3513 30.226 24.9313 29.946 24.39C29.666 23.8393 29.526 23.1907 29.526 22.444C29.526 21.7067 29.666 21.0627 29.946 20.512C30.226 19.952 30.618 19.5227 31.122 19.224C31.6354 18.9253 32.2327 18.776 32.914 18.776C33.6047 18.776 34.202 18.9253 34.706 19.224C35.21 19.5227 35.602 19.952 35.882 20.512C36.162 21.0627 36.302 21.7067 36.302 22.444C36.302 23.1907 36.162 23.8393 35.882 24.39C35.602 24.9313 35.21 25.3513 34.706 25.65C34.202 25.9487 33.6047 26.098 32.914 26.098ZM32.914 25.062C33.586 25.062 34.104 24.8427 34.468 24.404C34.832 23.956 35.014 23.3027 35.014 22.444C35.014 21.5947 34.8274 20.946 34.454 20.498C34.09 20.05 33.5767 19.826 32.914 19.826C32.2607 19.826 31.7474 20.05 31.374 20.498C31.0007 20.946 30.814 21.5947 30.814 22.444C30.814 23.3027 30.996 23.956 31.36 24.404C31.724 24.8427 32.242 25.062 32.914 25.062ZM38.2261 26V20.932C38.2261 20.6053 38.2168 20.2787 38.1981 19.952C38.1888 19.616 38.1608 19.2847 38.1141 18.958H39.3181L39.4721 20.708L39.3181 20.652C39.4394 20.036 39.7148 19.574 40.1441 19.266C40.5828 18.9487 41.0728 18.79 41.6141 18.79C41.7448 18.79 41.8614 18.7993 41.9641 18.818C42.0761 18.8273 42.1788 18.846 42.2721 18.874L42.2581 20.036C42.0248 19.952 41.7634 19.91 41.4741 19.91C40.9981 19.91 40.6154 20.0127 40.3261 20.218C40.0368 20.4233 39.8268 20.6847 39.6961 21.002C39.5654 21.3193 39.5001 21.66 39.5001 22.024V26H38.2261ZM49.7854 26H48.5254V24.138L48.6934 24.306C48.5347 24.8753 48.2314 25.3187 47.7834 25.636C47.3354 25.944 46.794 26.098 46.1594 26.098C45.5527 26.098 45.0114 25.9487 44.5354 25.65C44.0687 25.342 43.7 24.9127 43.4294 24.362C43.168 23.802 43.0374 23.1533 43.0374 22.416C43.0374 21.6787 43.168 21.0393 43.4294 20.498C43.6907 19.9473 44.0547 19.5227 44.5214 19.224C44.9974 18.9253 45.5434 18.776 46.1594 18.776C46.794 18.776 47.3354 18.9347 47.7834 19.252C48.2314 19.5693 48.5347 20.008 48.6934 20.568L48.5114 20.736V15.696H49.7854V26ZM46.4394 25.062C47.102 25.062 47.6154 24.838 47.9794 24.39C48.3434 23.9327 48.5254 23.284 48.5254 22.444C48.5254 21.6133 48.3434 20.9693 47.9794 20.512C47.6247 20.0547 47.1114 19.826 46.4394 19.826C45.7767 19.826 45.2587 20.0547 44.8854 20.512C44.512 20.96 44.3254 21.5947 44.3254 22.416C44.3254 23.256 44.512 23.9093 44.8854 24.376C45.2587 24.8333 45.7767 25.062 46.4394 25.062ZM57.9306 25.174C57.6226 25.4633 57.2259 25.692 56.7406 25.86C56.2552 26.0187 55.7606 26.098 55.2566 26.098C54.5192 26.098 53.8846 25.9533 53.3526 25.664C52.8206 25.3747 52.4099 24.9593 52.1206 24.418C51.8312 23.8673 51.6866 23.214 51.6866 22.458C51.6866 21.73 51.8266 21.0907 52.1066 20.54C52.3959 19.9893 52.7926 19.56 53.2966 19.252C53.8006 18.9347 54.3792 18.776 55.0326 18.776C55.6672 18.776 56.2086 18.916 56.6566 19.196C57.1139 19.476 57.4592 19.8773 57.6926 20.4C57.9352 20.9133 58.0566 21.5293 58.0566 22.248V22.472H52.8066V21.688H57.3286L56.9366 22.192C56.9552 21.3987 56.8012 20.792 56.4746 20.372C56.1479 19.952 55.6719 19.742 55.0466 19.742C54.3932 19.742 53.8799 19.9753 53.5066 20.442C53.1426 20.8993 52.9606 21.5433 52.9606 22.374C52.9606 23.27 53.1566 23.9467 53.5486 24.404C53.9406 24.852 54.5192 25.076 55.2846 25.076C55.6952 25.076 56.0872 25.0107 56.4606 24.88C56.8339 24.74 57.1886 24.5347 57.5246 24.264L57.9306 25.174ZM59.9355 26V20.932C59.9355 20.6053 59.9261 20.2787 59.9075 19.952C59.8981 19.616 59.8701 19.2847 59.8235 18.958H61.0275L61.1815 20.708L61.0275 20.652C61.1488 20.036 61.4241 19.574 61.8535 19.266C62.2921 18.9487 62.7821 18.79 63.3235 18.79C63.4541 18.79 63.5708 18.7993 63.6735 18.818C63.7855 18.8273 63.8881 18.846 63.9815 18.874L63.9675 20.036C63.7341 19.952 63.4728 19.91 63.1835 19.91C62.7075 19.91 62.3248 20.0127 62.0355 20.218C61.7461 20.4233 61.5361 20.6847 61.4055 21.002C61.2748 21.3193 61.2095 21.66 61.2095 22.024V26H59.9355ZM71.8969 26.098C71.2809 26.098 70.7349 25.9533 70.2589 25.664C69.7922 25.3653 69.4282 24.9453 69.1669 24.404C68.9055 23.8533 68.7749 23.2093 68.7749 22.472C68.7749 21.7347 68.9055 21.0907 69.1669 20.54C69.4375 19.9893 69.8062 19.56 70.2729 19.252C70.7489 18.9347 71.2902 18.776 71.8969 18.776C72.5315 18.776 73.0729 18.9347 73.5209 19.252C73.9689 19.56 74.2722 20.0033 74.4309 20.582L74.2629 20.68V18.958H75.5229V26H74.2629V24.236L74.4309 24.306C74.2722 24.8753 73.9689 25.3187 73.5209 25.636C73.0729 25.944 72.5315 26.098 71.8969 26.098ZM72.1769 25.062C72.8489 25.062 73.3622 24.838 73.7169 24.39C74.0809 23.9327 74.2629 23.284 74.2629 22.444C74.2629 21.604 74.0809 20.96 73.7169 20.512C73.3529 20.0547 72.8395 19.826 72.1769 19.826C71.5142 19.826 70.9962 20.0593 70.6229 20.526C70.2495 20.9927 70.0629 21.6413 70.0629 22.472C70.0629 23.3027 70.2495 23.942 70.6229 24.39C70.9962 24.838 71.5142 25.062 72.1769 25.062ZM79.9161 26L76.9061 18.972H78.2361L80.7141 25.02H80.3641L82.8701 18.972H84.1441L81.0921 26H79.9161ZM88.1426 26.098C87.5266 26.098 86.9806 25.9533 86.5046 25.664C86.0379 25.3653 85.6739 24.9453 85.4126 24.404C85.1512 23.8533 85.0206 23.2093 85.0206 22.472C85.0206 21.7347 85.1512 21.0907 85.4126 20.54C85.6832 19.9893 86.0519 19.56 86.5186 19.252C86.9946 18.9347 87.5359 18.776 88.1426 18.776C88.7772 18.776 89.3186 18.9347 89.7666 19.252C90.2146 19.56 90.5179 20.0033 90.6766 20.582L90.5086 20.68V18.958H91.7686V26H90.5086V24.236L90.6766 24.306C90.5179 24.8753 90.2146 25.3187 89.7666 25.636C89.3186 25.944 88.7772 26.098 88.1426 26.098ZM88.4226 25.062C89.0946 25.062 89.6079 24.838 89.9626 24.39C90.3266 23.9327 90.5086 23.284 90.5086 22.444C90.5086 21.604 90.3266 20.96 89.9626 20.512C89.5986 20.0547 89.0852 19.826 88.4226 19.826C87.7599 19.826 87.2419 20.0593 86.8686 20.526C86.4952 20.9927 86.3086 21.6413 86.3086 22.472C86.3086 23.3027 86.4952 23.942 86.8686 24.39C87.2419 24.838 87.7599 25.062 88.4226 25.062ZM94.0898 26V18.958H95.3638V26H94.0898ZM93.9778 15.92H95.4758V17.306H93.9778V15.92ZM97.6941 26V15.696H98.9681V26H97.6941ZM104 26.098C103.384 26.098 102.838 25.9533 102.362 25.664C101.896 25.3653 101.532 24.9453 101.27 24.404C101.009 23.8533 100.878 23.2093 100.878 22.472C100.878 21.7347 101.009 21.0907 101.27 20.54C101.541 19.9893 101.91 19.56 102.376 19.252C102.852 18.9347 103.394 18.776 104 18.776C104.635 18.776 105.176 18.9347 105.624 19.252C106.072 19.56 106.376 20.0033 106.534 20.582L106.366 20.68V18.958H107.626V26H106.366V24.236L106.534 24.306C106.376 24.8753 106.072 25.3187 105.624 25.636C105.176 25.944 104.635 26.098 104 26.098ZM104.28 25.062C104.952 25.062 105.466 24.838 105.82 24.39C106.184 23.9327 106.366 23.284 106.366 22.444C106.366 21.604 106.184 20.96 105.82 20.512C105.456 20.0547 104.943 19.826 104.28 19.826C103.618 19.826 103.1 20.0593 102.726 20.526C102.353 20.9927 102.166 21.6413 102.166 22.472C102.166 23.3027 102.353 23.942 102.726 24.39C103.1 24.838 103.618 25.062 104.28 25.062ZM109.948 26V15.696H111.222V20.736L111.054 20.568C111.212 20.008 111.516 19.5693 111.964 19.252C112.412 18.9347 112.948 18.776 113.574 18.776C114.199 18.776 114.745 18.9253 115.212 19.224C115.678 19.5227 116.042 19.9473 116.304 20.498C116.574 21.0393 116.71 21.6787 116.71 22.416C116.71 23.1533 116.574 23.802 116.304 24.362C116.042 24.9127 115.674 25.342 115.198 25.65C114.731 25.9487 114.19 26.098 113.574 26.098C112.948 26.098 112.412 25.944 111.964 25.636C111.516 25.3187 111.212 24.8753 111.054 24.306L111.208 24.138V26H109.948ZM113.308 25.062C113.97 25.062 114.484 24.8333 114.848 24.376C115.212 23.9093 115.394 23.256 115.394 22.416C115.394 21.5947 115.212 20.96 114.848 20.512C114.484 20.0547 113.97 19.826 113.308 19.826C112.636 19.826 112.118 20.0547 111.754 20.512C111.39 20.9693 111.208 21.6133 111.208 22.444C111.208 23.284 111.39 23.9327 111.754 24.39C112.118 24.838 112.636 25.062 113.308 25.062ZM118.597 26V15.696H119.871V26H118.597ZM128.025 25.174C127.717 25.4633 127.32 25.692 126.835 25.86C126.35 26.0187 125.855 26.098 125.351 26.098C124.614 26.098 123.979 25.9533 123.447 25.664C122.915 25.3747 122.504 24.9593 122.215 24.418C121.926 23.8673 121.781 23.214 121.781 22.458C121.781 21.73 121.921 21.0907 122.201 20.54C122.49 19.9893 122.887 19.56 123.391 19.252C123.895 18.9347 124.474 18.776 125.127 18.776C125.762 18.776 126.303 18.916 126.751 19.196C127.208 19.476 127.554 19.8773 127.787 20.4C128.03 20.9133 128.151 21.5293 128.151 22.248V22.472H122.901V21.688H127.423L127.031 22.192C127.05 21.3987 126.896 20.792 126.569 20.372C126.242 19.952 125.766 19.742 125.141 19.742C124.488 19.742 123.974 19.9753 123.601 20.442C123.237 20.8993 123.055 21.5433 123.055 22.374C123.055 23.27 123.251 23.9467 123.643 24.404C124.035 24.852 124.614 25.076 125.379 25.076C125.79 25.076 126.182 25.0107 126.555 24.88C126.928 24.74 127.283 24.5347 127.619 24.264L128.025 25.174Z" fill="white"/>
<path d="M139 20.6666C142.682 20.6666 145.667 17.6819 145.667 14C145.667 10.3181 142.682 7.33331 139 7.33331C135.318 7.33331 132.333 10.3181 132.333 14C132.333 17.6819 135.318 20.6666 139 20.6666Z" stroke="white" stroke-linecap="round" stroke-linejoin="round"/>
<path d="M139 16.6667V14" stroke="white" stroke-linecap="round" stroke-linejoin="round"/>
<path d="M139 11.3333H139.007" stroke="white" stroke-linecap="round" stroke-linejoin="round"/>
</svg>
