<svg width="209" height="20" viewBox="0 0 209 20" fill="none" xmlns="http://www.w3.org/2000/svg">
<path d="M5.67 18.126C4.65267 18.126 3.77067 17.916 3.024 17.496C2.27733 17.076 1.70333 16.4833 1.302 15.718C0.900667 14.9433 0.7 14.038 0.7 13.002C0.7 11.9753 0.900667 11.0793 1.302 10.314C1.70333 9.54867 2.27733 8.956 3.024 8.536C3.77067 8.116 4.65267 7.906 5.67 7.906C6.33267 7.906 6.96267 8.00867 7.56 8.214C8.15733 8.41 8.652 8.69 9.044 9.054L8.358 10.622C7.91 10.286 7.47133 10.0433 7.042 9.894C6.622 9.73533 6.17867 9.656 5.712 9.656C4.82533 9.656 4.13933 9.94067 3.654 10.51C3.16867 11.07 2.926 11.9007 2.926 13.002C2.926 14.1033 3.16867 14.9433 3.654 15.522C4.13933 16.0913 4.82533 16.376 5.712 16.376C6.17867 16.376 6.622 16.3013 7.042 16.152C7.47133 15.9933 7.91 15.746 8.358 15.41L9.044 16.978C8.652 17.342 8.15733 17.6267 7.56 17.832C6.96267 18.028 6.33267 18.126 5.67 18.126ZM10.778 18V8.032H12.962V16.222H17.414V18H10.778ZM22.9525 18.126C21.9538 18.126 21.0905 17.916 20.3625 17.496C19.6345 17.076 19.0698 16.4833 18.6685 15.718C18.2765 14.9527 18.0805 14.0473 18.0805 13.002C18.0805 11.966 18.2765 11.0653 18.6685 10.3C19.0698 9.53467 19.6345 8.94667 20.3625 8.536C21.0905 8.116 21.9538 7.906 22.9525 7.906C23.9511 7.906 24.8098 8.116 25.5285 8.536C26.2565 8.94667 26.8165 9.53467 27.2085 10.3C27.6005 11.0653 27.7965 11.966 27.7965 13.002C27.7965 14.0473 27.6005 14.9527 27.2085 15.718C26.8165 16.4833 26.2565 17.076 25.5285 17.496C24.8098 17.916 23.9511 18.126 22.9525 18.126ZM22.9525 16.432C23.7738 16.432 24.4225 16.1427 24.8985 15.564C25.3838 14.976 25.6265 14.122 25.6265 13.002C25.6265 11.882 25.3838 11.0373 24.8985 10.468C24.4225 9.88933 23.7738 9.6 22.9525 9.6C22.1218 9.6 21.4685 9.88933 20.9925 10.468C20.5165 11.0373 20.2785 11.882 20.2785 13.002C20.2785 14.1313 20.5165 14.9853 20.9925 15.564C21.4685 16.1427 22.1218 16.432 22.9525 16.432ZM33.1894 18.126C32.6854 18.126 32.1907 18.084 31.7054 18C31.2294 17.9067 30.7814 17.776 30.3614 17.608C29.9414 17.4307 29.5774 17.2207 29.2694 16.978L29.9834 15.41C30.478 15.7553 30.9914 16.012 31.5234 16.18C32.0554 16.348 32.6154 16.432 33.2034 16.432C33.838 16.432 34.3234 16.3293 34.6594 16.124C35.0047 15.9187 35.1774 15.634 35.1774 15.27C35.1774 15.0553 35.1074 14.8733 34.9674 14.724C34.8274 14.5747 34.6034 14.444 34.2954 14.332C33.9874 14.22 33.5767 14.108 33.0634 13.996C32.4194 13.8653 31.8687 13.7113 31.4114 13.534C30.954 13.3567 30.5807 13.1513 30.2914 12.918C30.0114 12.6847 29.806 12.414 29.6754 12.106C29.5447 11.7887 29.4794 11.4247 29.4794 11.014C29.4794 10.426 29.6427 9.89867 29.9694 9.432C30.3054 8.956 30.7674 8.58267 31.3554 8.312C31.9527 8.04133 32.648 7.906 33.4414 7.906C33.9174 7.906 34.3794 7.95267 34.8274 8.046C35.2847 8.13933 35.7047 8.27 36.0874 8.438C36.47 8.606 36.792 8.81133 37.0534 9.054L36.3534 10.622C35.9054 10.2767 35.4387 10.02 34.9534 9.852C34.468 9.684 33.9734 9.6 33.4694 9.6C32.9 9.6 32.4474 9.71667 32.1114 9.95C31.7754 10.174 31.6074 10.482 31.6074 10.874C31.6074 11.0887 31.6727 11.2707 31.8034 11.42C31.934 11.5693 32.1487 11.7047 32.4474 11.826C32.7554 11.938 33.1754 12.0547 33.7074 12.176C34.3327 12.3067 34.874 12.4607 35.3314 12.638C35.7887 12.8153 36.162 13.0207 36.4514 13.254C36.75 13.478 36.9694 13.744 37.1094 14.052C37.2494 14.3507 37.3194 14.696 37.3194 15.088C37.3194 15.7133 37.156 16.2547 36.8294 16.712C36.5027 17.16 36.0314 17.51 35.4154 17.762C34.7994 18.0047 34.0574 18.126 33.1894 18.126ZM39.1045 18V8.032H45.9785V9.726H41.2465V12.078H45.6845V13.786H41.2465V16.306H45.9785V18H39.1045ZM47.6854 18V8.032H51.5494C52.6414 8.032 53.5747 8.228 54.3494 8.62C55.1334 9.012 55.7307 9.58133 56.1414 10.328C56.5614 11.0653 56.7714 11.9567 56.7714 13.002C56.7714 14.0567 56.5661 14.9573 56.1554 15.704C55.7447 16.4413 55.1474 17.0107 54.3634 17.412C53.5887 17.804 52.6507 18 51.5494 18H47.6854ZM49.8694 16.236H51.3954C52.4594 16.236 53.2574 15.97 53.7894 15.438C54.3214 14.8967 54.5874 14.0847 54.5874 13.002C54.5874 10.8647 53.5234 9.796 51.3954 9.796H49.8694V16.236Z" fill="#E11F2F"/>
<path d="M63.0337 18V8.032H67.0797C68.1157 8.032 68.923 8.284 69.5017 8.788C70.0804 9.28267 70.3697 9.96867 70.3697 10.846C70.3697 11.7047 70.0757 12.3907 69.4877 12.904C68.909 13.408 68.1064 13.66 67.0797 13.66H64.3217V18H63.0337ZM64.3217 12.61H66.9537C67.6724 12.61 68.209 12.456 68.5637 12.148C68.9277 11.84 69.1097 11.406 69.1097 10.846C69.1097 10.2767 68.9277 9.84267 68.5637 9.544C68.209 9.236 67.6724 9.082 66.9537 9.082H64.3217V12.61ZM72.1171 18V12.932C72.1171 12.6053 72.1078 12.2787 72.0891 11.952C72.0798 11.616 72.0518 11.2847 72.0051 10.958H73.2091L73.3631 12.708L73.2091 12.652C73.3305 12.036 73.6058 11.574 74.0351 11.266C74.4738 10.9487 74.9638 10.79 75.5051 10.79C75.6358 10.79 75.7525 10.7993 75.8551 10.818C75.9671 10.8273 76.0698 10.846 76.1631 10.874L76.1491 12.036C75.9158 11.952 75.6545 11.91 75.3651 11.91C74.8891 11.91 74.5065 12.0127 74.2171 12.218C73.9278 12.4233 73.7178 12.6847 73.5871 13.002C73.4565 13.3193 73.3911 13.66 73.3911 14.024V18H72.1171ZM83.1724 17.174C82.8644 17.4633 82.4677 17.692 81.9824 17.86C81.497 18.0187 81.0024 18.098 80.4984 18.098C79.761 18.098 79.1264 17.9533 78.5944 17.664C78.0624 17.3747 77.6517 16.9593 77.3624 16.418C77.073 15.8673 76.9284 15.214 76.9284 14.458C76.9284 13.73 77.0684 13.0907 77.3484 12.54C77.6377 11.9893 78.0344 11.56 78.5384 11.252C79.0424 10.9347 79.621 10.776 80.2744 10.776C80.909 10.776 81.4504 10.916 81.8984 11.196C82.3557 11.476 82.701 11.8773 82.9344 12.4C83.177 12.9133 83.2984 13.5293 83.2984 14.248V14.472H78.0484V13.688H82.5704L82.1784 14.192C82.197 13.3987 82.043 12.792 81.7164 12.372C81.3897 11.952 80.9137 11.742 80.2884 11.742C79.635 11.742 79.1217 11.9753 78.7484 12.442C78.3844 12.8993 78.2024 13.5433 78.2024 14.374C78.2024 15.27 78.3984 15.9467 78.7904 16.404C79.1824 16.852 79.761 17.076 80.5264 17.076C80.937 17.076 81.329 17.0107 81.7024 16.88C82.0757 16.74 82.4304 16.5347 82.7664 16.264L83.1724 17.174ZM85.2853 14.752V13.716H89.3033V14.752H85.2853ZM94.7437 18.098C94.0624 18.098 93.465 17.9487 92.9517 17.65C92.4477 17.3513 92.0557 16.9313 91.7757 16.39C91.4957 15.8393 91.3557 15.1907 91.3557 14.444C91.3557 13.7067 91.4957 13.0627 91.7757 12.512C92.0557 11.952 92.4477 11.5227 92.9517 11.224C93.465 10.9253 94.0624 10.776 94.7437 10.776C95.4344 10.776 96.0317 10.9253 96.5357 11.224C97.0397 11.5227 97.4317 11.952 97.7117 12.512C97.9917 13.0627 98.1317 13.7067 98.1317 14.444C98.1317 15.1907 97.9917 15.8393 97.7117 16.39C97.4317 16.9313 97.0397 17.3513 96.5357 17.65C96.0317 17.9487 95.4344 18.098 94.7437 18.098ZM94.7437 17.062C95.4157 17.062 95.9337 16.8427 96.2977 16.404C96.6617 15.956 96.8437 15.3027 96.8437 14.444C96.8437 13.5947 96.657 12.946 96.2837 12.498C95.9197 12.05 95.4064 11.826 94.7437 11.826C94.0904 11.826 93.577 12.05 93.2037 12.498C92.8304 12.946 92.6437 13.5947 92.6437 14.444C92.6437 15.3027 92.8257 15.956 93.1897 16.404C93.5537 16.8427 94.0717 17.062 94.7437 17.062ZM100.056 18V12.932C100.056 12.6053 100.046 12.2787 100.028 11.952C100.018 11.616 99.9905 11.2847 99.9438 10.958H101.148L101.302 12.708L101.148 12.652C101.269 12.036 101.544 11.574 101.974 11.266C102.412 10.9487 102.902 10.79 103.444 10.79C103.574 10.79 103.691 10.7993 103.794 10.818C103.906 10.8273 104.008 10.846 104.102 10.874L104.088 12.036C103.854 11.952 103.593 11.91 103.304 11.91C102.828 11.91 102.445 12.0127 102.156 12.218C101.866 12.4233 101.656 12.6847 101.526 13.002C101.395 13.3193 101.33 13.66 101.33 14.024V18H100.056ZM111.615 18H110.355V16.138L110.523 16.306C110.364 16.8753 110.061 17.3187 109.613 17.636C109.165 17.944 108.624 18.098 107.989 18.098C107.382 18.098 106.841 17.9487 106.365 17.65C105.898 17.342 105.53 16.9127 105.259 16.362C104.998 15.802 104.867 15.1533 104.867 14.416C104.867 13.6787 104.998 13.0393 105.259 12.498C105.52 11.9473 105.884 11.5227 106.351 11.224C106.827 10.9253 107.373 10.776 107.989 10.776C108.624 10.776 109.165 10.9347 109.613 11.252C110.061 11.5693 110.364 12.008 110.523 12.568L110.341 12.736V7.696H111.615V18ZM108.269 17.062C108.932 17.062 109.445 16.838 109.809 16.39C110.173 15.9327 110.355 15.284 110.355 14.444C110.355 13.6133 110.173 12.9693 109.809 12.512C109.454 12.0547 108.941 11.826 108.269 11.826C107.606 11.826 107.088 12.0547 106.715 12.512C106.342 12.96 106.155 13.5947 106.155 14.416C106.155 15.256 106.342 15.9093 106.715 16.376C107.088 16.8333 107.606 17.062 108.269 17.062ZM119.76 17.174C119.452 17.4633 119.056 17.692 118.57 17.86C118.085 18.0187 117.59 18.098 117.086 18.098C116.349 18.098 115.714 17.9533 115.182 17.664C114.65 17.3747 114.24 16.9593 113.95 16.418C113.661 15.8673 113.516 15.214 113.516 14.458C113.516 13.73 113.656 13.0907 113.936 12.54C114.226 11.9893 114.622 11.56 115.126 11.252C115.63 10.9347 116.209 10.776 116.862 10.776C117.497 10.776 118.038 10.916 118.486 11.196C118.944 11.476 119.289 11.8773 119.522 12.4C119.765 12.9133 119.886 13.5293 119.886 14.248V14.472H114.636V13.688H119.158L118.766 14.192C118.785 13.3987 118.631 12.792 118.304 12.372C117.978 11.952 117.502 11.742 116.876 11.742C116.223 11.742 115.71 11.9753 115.336 12.442C114.972 12.8993 114.79 13.5433 114.79 14.374C114.79 15.27 114.986 15.9467 115.378 16.404C115.77 16.852 116.349 17.076 117.114 17.076C117.525 17.076 117.917 17.0107 118.29 16.88C118.664 16.74 119.018 16.5347 119.354 16.264L119.76 17.174ZM121.765 18V12.932C121.765 12.6053 121.756 12.2787 121.737 11.952C121.728 11.616 121.7 11.2847 121.653 10.958H122.857L123.011 12.708L122.857 12.652C122.979 12.036 123.254 11.574 123.683 11.266C124.122 10.9487 124.612 10.79 125.153 10.79C125.284 10.79 125.401 10.7993 125.503 10.818C125.615 10.8273 125.718 10.846 125.811 10.874L125.797 12.036C125.564 11.952 125.303 11.91 125.013 11.91C124.537 11.91 124.155 12.0127 123.865 12.218C123.576 12.4233 123.366 12.6847 123.235 13.002C123.105 13.3193 123.039 13.66 123.039 14.024V18H121.765ZM133.727 18.098C133.111 18.098 132.565 17.9533 132.089 17.664C131.622 17.3653 131.258 16.9453 130.997 16.404C130.735 15.8533 130.605 15.2093 130.605 14.472C130.605 13.7347 130.735 13.0907 130.997 12.54C131.267 11.9893 131.636 11.56 132.103 11.252C132.579 10.9347 133.12 10.776 133.727 10.776C134.361 10.776 134.903 10.9347 135.351 11.252C135.799 11.56 136.102 12.0033 136.261 12.582L136.093 12.68V10.958H137.353V18H136.093V16.236L136.261 16.306C136.102 16.8753 135.799 17.3187 135.351 17.636C134.903 17.944 134.361 18.098 133.727 18.098ZM134.007 17.062C134.679 17.062 135.192 16.838 135.547 16.39C135.911 15.9327 136.093 15.284 136.093 14.444C136.093 13.604 135.911 12.96 135.547 12.512C135.183 12.0547 134.669 11.826 134.007 11.826C133.344 11.826 132.826 12.0593 132.453 12.526C132.079 12.9927 131.893 13.6413 131.893 14.472C131.893 15.3027 132.079 15.942 132.453 16.39C132.826 16.838 133.344 17.062 134.007 17.062ZM141.746 18L138.736 10.972H140.066L142.544 17.02H142.194L144.7 10.972H145.974L142.922 18H141.746ZM149.972 18.098C149.356 18.098 148.81 17.9533 148.334 17.664C147.868 17.3653 147.504 16.9453 147.242 16.404C146.981 15.8533 146.85 15.2093 146.85 14.472C146.85 13.7347 146.981 13.0907 147.242 12.54C147.513 11.9893 147.882 11.56 148.348 11.252C148.824 10.9347 149.366 10.776 149.972 10.776C150.607 10.776 151.148 10.9347 151.596 11.252C152.044 11.56 152.348 12.0033 152.506 12.582L152.338 12.68V10.958H153.598V18H152.338V16.236L152.506 16.306C152.348 16.8753 152.044 17.3187 151.596 17.636C151.148 17.944 150.607 18.098 149.972 18.098ZM150.252 17.062C150.924 17.062 151.438 16.838 151.792 16.39C152.156 15.9327 152.338 15.284 152.338 14.444C152.338 13.604 152.156 12.96 151.792 12.512C151.428 12.0547 150.915 11.826 150.252 11.826C149.59 11.826 149.072 12.0593 148.698 12.526C148.325 12.9927 148.138 13.6413 148.138 14.472C148.138 15.3027 148.325 15.942 148.698 16.39C149.072 16.838 149.59 17.062 150.252 17.062ZM155.919 18V10.958H157.193V18H155.919ZM155.807 7.92H157.305V9.306H155.807V7.92ZM159.524 18V7.696H160.798V18H159.524ZM165.83 18.098C165.214 18.098 164.668 17.9533 164.192 17.664C163.725 17.3653 163.361 16.9453 163.1 16.404C162.839 15.8533 162.708 15.2093 162.708 14.472C162.708 13.7347 162.839 13.0907 163.1 12.54C163.371 11.9893 163.739 11.56 164.206 11.252C164.682 10.9347 165.223 10.776 165.83 10.776C166.465 10.776 167.006 10.9347 167.454 11.252C167.902 11.56 168.205 12.0033 168.364 12.582L168.196 12.68V10.958H169.456V18H168.196V16.236L168.364 16.306C168.205 16.8753 167.902 17.3187 167.454 17.636C167.006 17.944 166.465 18.098 165.83 18.098ZM166.11 17.062C166.782 17.062 167.295 16.838 167.65 16.39C168.014 15.9327 168.196 15.284 168.196 14.444C168.196 13.604 168.014 12.96 167.65 12.512C167.286 12.0547 166.773 11.826 166.11 11.826C165.447 11.826 164.929 12.0593 164.556 12.526C164.183 12.9927 163.996 13.6413 163.996 14.472C163.996 15.3027 164.183 15.942 164.556 16.39C164.929 16.838 165.447 17.062 166.11 17.062ZM171.777 18V7.696H173.051V12.736L172.883 12.568C173.042 12.008 173.345 11.5693 173.793 11.252C174.241 10.9347 174.778 10.776 175.403 10.776C176.029 10.776 176.575 10.9253 177.041 11.224C177.508 11.5227 177.872 11.9473 178.133 12.498C178.404 13.0393 178.539 13.6787 178.539 14.416C178.539 15.1533 178.404 15.802 178.133 16.362C177.872 16.9127 177.503 17.342 177.027 17.65C176.561 17.9487 176.019 18.098 175.403 18.098C174.778 18.098 174.241 17.944 173.793 17.636C173.345 17.3187 173.042 16.8753 172.883 16.306L173.037 16.138V18H171.777ZM175.137 17.062C175.8 17.062 176.313 16.8333 176.677 16.376C177.041 15.9093 177.223 15.256 177.223 14.416C177.223 13.5947 177.041 12.96 176.677 12.512C176.313 12.0547 175.8 11.826 175.137 11.826C174.465 11.826 173.947 12.0547 173.583 12.512C173.219 12.9693 173.037 13.6133 173.037 14.444C173.037 15.284 173.219 15.9327 173.583 16.39C173.947 16.838 174.465 17.062 175.137 17.062ZM180.427 18V7.696H181.701V18H180.427ZM189.855 17.174C189.547 17.4633 189.15 17.692 188.665 17.86C188.179 18.0187 187.685 18.098 187.181 18.098C186.443 18.098 185.809 17.9533 185.277 17.664C184.745 17.3747 184.334 16.9593 184.045 16.418C183.755 15.8673 183.611 15.214 183.611 14.458C183.611 13.73 183.751 13.0907 184.031 12.54C184.32 11.9893 184.717 11.56 185.221 11.252C185.725 10.9347 186.303 10.776 186.957 10.776C187.591 10.776 188.133 10.916 188.581 11.196C189.038 11.476 189.383 11.8773 189.617 12.4C189.859 12.9133 189.981 13.5293 189.981 14.248V14.472H184.731V13.688H189.253L188.861 14.192C188.879 13.3987 188.725 12.792 188.399 12.372C188.072 11.952 187.596 11.742 186.971 11.742C186.317 11.742 185.804 11.9753 185.431 12.442C185.067 12.8993 184.885 13.5433 184.885 14.374C184.885 15.27 185.081 15.9467 185.473 16.404C185.865 16.852 186.443 17.076 187.209 17.076C187.619 17.076 188.011 17.0107 188.385 16.88C188.758 16.74 189.113 16.5347 189.449 16.264L189.855 17.174Z" fill="white"/>
<path d="M201 14.6666C204.682 14.6666 207.667 11.6818 207.667 7.99992C207.667 4.31802 204.682 1.33325 201 1.33325C197.318 1.33325 194.333 4.31802 194.333 7.99992C194.333 11.6818 197.318 14.6666 201 14.6666Z" stroke="white" stroke-linecap="round" stroke-linejoin="round"/>
<path d="M201 10.6667V8" stroke="white" stroke-linecap="round" stroke-linejoin="round"/>
<path d="M201 5.33325H201.007" stroke="white" stroke-linecap="round" stroke-linejoin="round"/>
</svg>
