<svg width="25" height="24" viewBox="0 0 25 24" fill="none" xmlns="http://www.w3.org/2000/svg">
<path d="M4.99998 15.248C4.99998 15.248 4.49998 11.248 8.49998 11.248C9.25698 11.248 9.93298 11.313 10.5 11.248C12.526 11.016 13.139 9.18405 12.5 7.24805C13.0273 7.55528 13.5362 7.89319 14.024 8.26005" stroke="#D12C35" stroke-linecap="round" stroke-linejoin="round"/>
<path d="M16.961 14.244C16.87 14.6027 16.7141 14.9416 16.501 15.244" stroke="#D12C35" stroke-linecap="round" stroke-linejoin="round"/>
<path d="M1 18.748V21.748C1 22.1459 1.15804 22.5274 1.43934 22.8087C1.72064 23.09 2.10218 23.248 2.5 23.248H19.5C19.8978 23.248 20.2794 23.09 20.5607 22.8087C20.842 22.5274 21 22.1459 21 21.748V18.748C21 18.6154 20.9473 18.4883 20.8536 18.3945C20.7598 18.3007 20.6326 18.248 20.5 18.248H1.5C1.36739 18.248 1.24021 18.3007 1.14645 18.3945C1.05268 18.4883 1 18.6154 1 18.748Z" stroke="#D12C35" stroke-linecap="round" stroke-linejoin="round"/>
<path d="M19 18.248V16.748C19 16.3502 18.842 15.9687 18.5607 15.6874C18.2794 15.4061 17.8978 15.248 17.5 15.248H4.5C4.10218 15.248 3.72064 15.4061 3.43934 15.6874C3.15804 15.9687 3 16.3502 3 16.748V18.248" stroke="#D12C35" stroke-linecap="round" stroke-linejoin="round"/>
<path d="M24 9.24804C24 10.3089 23.5786 11.3263 22.8284 12.0765C22.0783 12.8266 21.0609 13.248 20 13.248C18.9391 13.248 17.9217 12.8266 17.1716 12.0765C16.4214 11.3263 16 10.3089 16 9.24804C16 7.49204 18.528 2.83904 19.565 1.00604C19.6086 0.929089 19.6718 0.865085 19.7483 0.820555C19.8247 0.776025 19.9116 0.752563 20 0.752563C20.0884 0.752563 20.1753 0.776025 20.2517 0.820555C20.3282 0.865085 20.3914 0.929089 20.435 1.00604C21.473 2.83904 24 7.49204 24 9.24804Z" stroke="#D12C35" stroke-linecap="round" stroke-linejoin="round"/>
</svg>
