<?xml version="1.0" encoding="UTF-8"?>
<svg version="1.1" xmlns="http://www.w3.org/2000/svg" xmlns:xlink="http://www.w3.org/1999/xlink" width="27px" viewBox="0 0 86 98" fill="none"><path d="M84.905 40.92C83.8753 33.8482 82.1667 28.1074 79.8779 22.4185C73.827 23.2769 68.0624 24.6383 61.3408 27.315C58.2931 28.5288 55.4487 29.8916 52.8201 31.3888C52.0508 29.1928 51.1071 27.1155 49.9927 25.1858C45.1756 16.8416 36.4152 9.95682 24.6591 5.27618C18.0199 2.63205 12.1937 1.24025 6.12202 0.378906C3.84068 6.0485 2.13803 11.7211 1.09492 18.8804C-0.729414 31.4022 0.853057 42.4312 5.67021 50.7754C11.598 61.0425 22.2138 67.1357 30.71 70.5655C30.7649 73.3246 31.0031 76.1802 31.4319 79.1189C32.4617 86.1907 34.1695 91.9322 36.459 97.6211C42.5099 96.762 48.2738 95.4006 54.9961 92.7238C66.7522 88.0432 75.5126 81.1583 80.3297 72.8142C85.1469 64.4708 86.7293 53.4417 84.905 40.92Z" fill="white"></path><path d="M84.905 40.92C83.8753 33.8482 82.1667 28.1074 79.8779 22.4185C73.827 23.2769 68.0624 24.6383 61.3408 27.315C58.2931 28.5288 55.4487 29.8916 52.8201 31.3888C52.0508 29.1928 51.1071 27.1155 49.9927 25.1858C45.1756 16.8416 36.4152 9.95682 24.6591 5.27618C18.0199 2.63205 12.1937 1.24025 6.12202 0.378906C3.84068 6.0485 2.13803 11.7211 1.09492 18.8804C-0.729414 31.4022 0.853057 42.4312 5.67021 50.7754C11.598 61.0425 22.2138 67.1357 30.71 70.5655C30.7649 73.3246 31.0031 76.1802 31.4319 79.1189C32.4617 86.1907 34.1695 91.9322 36.459 97.6211C42.5099 96.762 48.2738 95.4006 54.9961 92.7238C66.7522 88.0432 75.5126 81.1583 80.3297 72.8142C85.1469 64.4708 86.7293 53.4417 84.905 40.92ZM10.5949 47.9317C2.17141 33.3415 7.63105 13.2976 9.79739 6.73921C16.5598 8.13472 36.6252 13.4044 45.068 28.0287C46.2172 30.0185 47.1542 32.2056 47.8724 34.5471C42.8965 38.1126 38.9644 42.2539 36.2327 46.8455L35.1481 44.9655L39.006 30.5668L33.5129 29.0948L31.1262 38.0006L21.7635 21.7842L16.8395 24.6271L20.5149 30.9949L11.6098 28.6082L10.1379 34.1012L24.536 37.9591L31.8882 50.6938L22.9824 48.3078L21.5112 53.8001L32.2102 56.6675C31.5736 59.138 31.1374 61.7473 30.9014 64.476C23.6598 61.2918 15.3001 56.0822 10.5949 47.9317ZM43.9344 90.3601L55.7773 69.8481L70.1754 65.9902L68.7034 60.4972L59.7977 62.8839L69.1604 46.6667L64.2357 43.8238L60.5596 50.1907L58.1737 41.2857L52.6806 42.7577L56.5385 57.1557L49.1863 69.8904L46.8003 60.9846L41.3073 62.4566L45.1652 76.8546L39.0097 87.5164C36.6541 78.8792 33.7563 62.4966 40.9312 50.0683C49.3554 35.4774 69.4431 30.1847 76.2062 28.781C78.3793 35.335 83.8485 55.3469 75.405 69.9713C68.2293 82.3995 52.5916 88.0817 43.9344 90.3601Z" fill="#64737F"></path></svg>