<svg width="23" height="23" viewBox="0 0 23 23" fill="none" xmlns="http://www.w3.org/2000/svg">
<path d="M13.3701 20.32C14.1647 21.0239 15.0703 21.5916 16.0501 22C16.1439 22.0465 16.2498 22.0623 16.3531 22.0454C16.4563 22.0284 16.5516 21.9795 16.6256 21.9056C16.6996 21.8316 16.7485 21.7362 16.7655 21.633C16.7824 21.5297 16.7666 21.4238 16.7201 21.33C16.302 20.4306 15.7339 19.6088 15.0401 18.9C14.8901 18.76 14.7501 18.62 14.6001 18.5C14.5348 18.4366 14.4903 18.3548 14.4725 18.2656C14.4546 18.1763 14.4642 18.0837 14.5001 18C15.3213 18.205 16.1638 18.3124 17.0101 18.32C18.5995 18.2914 20.1657 17.9339 21.6101 17.27C21.6974 17.2303 21.7714 17.1662 21.8233 17.0855C21.8752 17.0049 21.9028 16.911 21.9028 16.815C21.9028 16.7191 21.8752 16.6252 21.8233 16.5445C21.7714 16.4638 21.6974 16.3998 21.6101 16.36C20.1619 15.7139 18.5959 15.3735 17.0101 15.36C16.5065 15.3372 16.0018 15.3505 15.5001 15.4C15.3696 15.4219 15.2356 15.3993 15.1195 15.3358C15.0035 15.2723 14.9121 15.1717 14.8601 15.05C15.8091 14.4225 16.6934 13.7023 17.5001 12.9C19.182 11.1779 20.5044 9.13831 21.3901 6.90002C19.1481 7.77847 17.1071 9.10171 15.3901 10.79C14.6943 11.4858 14.0618 12.2421 13.5001 13.05C13.4169 13.1695 13.3063 13.2672 13.1776 13.3351C13.0488 13.4029 12.9057 13.4389 12.7601 13.44C13.2385 11.7647 13.4874 10.0322 13.5001 8.29002C13.4632 5.72187 12.9406 3.1839 11.9601 0.810022C11.9217 0.719828 11.8576 0.642919 11.7758 0.588861C11.694 0.534803 11.5981 0.505981 11.5001 0.505981C11.4021 0.505981 11.3062 0.534803 11.2244 0.588861C11.1426 0.642919 11.0785 0.719828 11.0401 0.810022C10.0596 3.1839 9.53704 5.72187 9.50011 8.29002C9.51282 10.0322 9.76176 11.7647 10.2401 13.44C10.0946 13.4389 9.9514 13.4029 9.82264 13.3351C9.69388 13.2672 9.58327 13.1695 9.50011 13.05C8.93886 12.2387 8.30635 11.479 7.61011 10.78C5.89313 9.09171 3.85214 7.76847 1.61011 6.89002C2.49466 9.13187 3.81708 11.175 5.50011 12.9C6.3131 13.7033 7.20417 14.4236 8.16011 15.05C8.10738 15.1756 8.01285 15.279 7.89256 15.3428C7.77227 15.4066 7.63361 15.4268 7.50011 15.4C7.00007 15.3271 6.49543 15.2904 5.99011 15.29C4.40432 15.3035 2.83835 15.6439 1.39011 16.29C1.30281 16.3298 1.2288 16.3938 1.17691 16.4745C1.12501 16.5552 1.09741 16.6491 1.09741 16.745C1.09741 16.841 1.12501 16.9349 1.17691 17.0155C1.2288 17.0962 1.30281 17.1603 1.39011 17.2C2.83448 17.8639 4.40072 18.2214 5.99011 18.25C6.83368 18.2654 7.67614 18.1815 8.50011 18C8.54422 18.0895 8.55735 18.1911 8.53744 18.2888C8.51753 18.3866 8.4657 18.4749 8.39011 18.54C8.24011 18.66 8.10011 18.8 7.95011 18.94C7.25628 19.6488 6.68817 20.4706 6.27011 21.37C6.22366 21.4638 6.20779 21.5697 6.22474 21.673C6.24169 21.7762 6.2906 21.8716 6.36458 21.9455C6.43857 22.0195 6.5339 22.0684 6.63714 22.0854C6.74039 22.1023 6.84635 22.0865 6.94011 22.04C7.92062 21.6285 8.82621 21.0575 9.62011 20.35" stroke="black" stroke-linecap="round" stroke-linejoin="round"/>
</svg>
