<?xml version="1.0" encoding="UTF-8"?>
<svg version="1.1" xmlns="http://www.w3.org/2000/svg" xmlns:xlink="http://www.w3.org/1999/xlink" width="26px" viewBox="0 0 82 92" fill="none"><path d="M81.5958 51.2164C81.5494 50.4843 81.2024 49.8042 80.6373 49.3366C80.0721 48.869 79.3387 48.6562 78.6111 48.7477C78.5163 48.7595 78.4217 48.7735 78.3269 48.7858C78.7133 39.8769 75.7207 32.0046 75.5766 31.632C75.1259 30.4661 73.9232 29.7721 72.6881 29.9645C72.627 29.974 72.4491 30.0027 72.1743 30.0536C69.7821 20.3573 62.8459 12.3217 62.5245 11.9534C61.8147 11.14 60.6833 10.837 59.6621 11.1864C59.5058 11.2399 58.188 11.6977 56.244 12.576C51.2824 5.55083 43.5485 0.727239 43.1974 0.510377C42.3416 -0.0177818 41.2612 -0.0177818 40.4054 0.510377C40.0543 0.727062 32.3215 5.55012 27.3599 12.5744C25.4186 11.6976 24.1027 11.2403 23.9466 11.1869C22.9254 10.8379 21.7941 11.1407 21.0842 11.9539C20.7628 12.3223 13.8262 20.358 11.4341 30.0547C11.1563 30.0031 10.9763 29.974 10.9148 29.9645C9.67923 29.7719 8.4771 30.4661 8.02636 31.632C7.88232 32.0045 4.88966 39.8767 5.27608 48.7856C5.18129 48.7734 5.08668 48.7594 4.99189 48.7475C4.26476 48.6557 3.53126 48.869 2.96625 49.3366C2.40106 49.8042 2.05415 50.4843 2.00773 51.2164C0.648622 72.6987 18.9203 90.8279 41.8018 90.8279C64.6573 90.8279 82.9565 72.7249 81.5958 51.2164Z" fill="white"></path><path d="M80.9207 51.8123C80.8737 51.0717 80.5228 50.3836 79.951 49.9106C79.3792 49.4376 78.6374 49.2223 77.9012 49.3148C77.8053 49.3268 77.7096 49.341 77.6137 49.3533C78.0046 40.3406 74.9771 32.3765 74.8314 31.9996C74.3754 30.82 73.1587 30.1179 71.9092 30.3126C71.8473 30.3222 71.6674 30.3513 71.3894 30.4027C68.9693 20.5934 61.9522 12.4641 61.627 12.0915C60.909 11.2686 59.7643 10.9621 58.7312 11.3155C58.5731 11.3697 57.2399 11.8328 55.2733 12.7213C50.2538 5.61422 42.4298 0.734387 42.0745 0.514996C41.2088 -0.0193215 40.1158 -0.0193215 39.25 0.514996C38.8948 0.734208 31.0718 5.61351 26.0523 12.7197C24.0884 11.8326 22.7572 11.37 22.5993 11.3161C21.5661 10.963 20.4217 11.2693 19.7034 12.092C19.3783 12.4646 12.3608 20.5941 9.9409 30.4038C9.65985 30.3516 9.47774 30.3222 9.41554 30.3126C8.16551 30.1177 6.94936 30.82 6.49337 31.9996C6.34765 32.3763 3.32009 40.3404 3.71102 49.3532C3.61512 49.3408 3.51941 49.3266 3.42351 49.3146C2.68791 49.2218 1.94585 49.4376 1.37425 49.9106C0.802473 50.3836 0.451519 51.0717 0.404558 51.8123C-0.9704 73.5451 17.5144 91.8858 40.6626 91.8858C63.7847 91.8858 82.2973 73.5717 80.9207 51.8123ZM72.1707 50.2528C66.815 51.3287 61.5935 52.9503 56.5882 55.0835C55.0695 52.5022 53.1116 50.1777 51.126 48.196C55.8207 40.4943 66.0068 37.2133 70.5159 36.1019C71.367 39.0346 72.6331 44.5588 72.1707 50.2528ZM40.6625 46.5206C43.1788 48.2428 48.5401 52.2848 51.6897 57.3692C47.8477 59.3234 44.1578 61.5896 40.6626 64.154C37.1673 61.5896 33.4774 59.3234 29.6354 57.3692C32.7853 52.2843 38.1475 48.242 40.6625 46.5206ZM29.9182 39.6356C33.0716 34.1311 38.1563 29.7736 40.6648 27.8281C43.1727 29.7687 48.2476 34.113 51.4074 39.6352C49.795 41.0642 48.3105 42.6994 47.0601 44.568C44.3622 42.4036 42.2405 41.122 42.0406 41.0028C41.1919 40.4961 40.1332 40.4961 39.2845 41.0028C39.0846 41.1222 36.9629 42.4036 34.265 44.5681C33.0148 42.6997 31.5305 41.0645 29.9182 39.6356ZM58.7402 17.0833C60.708 19.6696 64.6263 25.391 66.1758 31.7183C63.1764 32.6527 59.3847 34.1363 55.7499 36.4091C52.8374 31.5465 48.8047 27.6125 45.8868 25.1366C50.2857 20.9612 55.9388 18.2607 58.7402 17.0833ZM40.6644 6.0401C42.8824 7.59842 47.2517 10.9547 50.4291 15.2006C47.5107 16.8801 44.267 19.1154 41.4755 21.9295C40.9482 21.7622 40.3814 21.7617 39.8537 21.928C37.0613 19.1138 33.8171 16.8784 30.8983 15.199C34.0705 10.966 38.4463 7.60183 40.6644 6.0401ZM22.5953 17.0828C25.3947 18.2556 31.0354 20.9463 35.4424 25.1336C32.5242 27.6092 28.4891 31.5445 25.5756 36.4093C21.9432 34.1381 18.1544 32.6551 15.1561 31.7205C16.7051 25.4101 20.6285 19.6737 22.5953 17.0828ZM10.8091 36.1019C15.3203 37.2139 25.5049 40.4949 30.1991 48.196C28.2136 50.1777 26.2558 52.5021 24.7371 55.0833C19.7318 52.95 14.5103 51.3284 9.15439 50.2526C8.69212 44.5579 9.95864 39.0334 10.8091 36.1019ZM5.72766 55.0862C16.6151 56.9083 26.974 61.1379 36.026 67.4495C32.2333 70.2948 26.1308 75.6311 23.3347 82.2313C13.1129 76.7917 6.11643 66.6985 5.72766 55.0862ZM40.6626 86.5086C36.2951 86.5086 32.1128 85.7597 28.255 84.3953C30.8684 78.0875 37.701 72.8059 40.6625 70.7384C43.6253 72.807 50.4569 78.0882 53.0701 84.3953C49.2124 85.7597 45.0302 86.5086 40.6626 86.5086ZM57.9906 82.2313C55.1944 75.6313 49.0922 70.2951 45.2994 67.4497C54.3511 61.1379 64.7098 56.9085 75.5976 55.0862C75.2086 66.6985 68.2123 76.7917 57.9906 82.2313Z" fill="#64737F"></path></svg>