<svg width="24" height="24" viewBox="0 0 24 24" fill="none" xmlns="http://www.w3.org/2000/svg">
<path d="M3.68879 2C3.4862 2.0001 3.28842 2.06173 3.12163 2.17673C2.95484 2.29173 2.82692 2.45468 2.75479 2.644L1.17379 6.792C1.00431 7.23726 0.999348 7.7284 1.15979 8.177C1.3787 8.78636 1.80554 9.29898 2.36517 9.62463C2.9248 9.95029 3.58137 10.0681 4.21932 9.95737C4.85727 9.84663 5.43571 9.51441 5.85284 9.01919C6.26998 8.52397 6.49907 7.89749 6.49979 7.25C6.49979 7.97935 6.78952 8.67882 7.30525 9.19454C7.82097 9.71027 8.52045 10 9.24979 10C9.97914 10 10.6786 9.71027 11.1943 9.19454C11.7101 8.67882 11.9998 7.97935 11.9998 7.25C11.9998 7.97935 12.2895 8.67882 12.8052 9.19454C13.321 9.71027 14.0204 10 14.7498 10C15.4791 10 16.1786 9.71027 16.6943 9.19454C17.2101 8.67882 17.4998 7.97935 17.4998 7.25C17.5005 7.89749 17.7296 8.52397 18.1467 9.01919C18.5639 9.51441 19.1423 9.84663 19.7803 9.95737C20.4182 10.0681 21.0748 9.95029 21.6344 9.62463C22.1941 9.29898 22.6209 8.78636 22.8398 8.177C23.0004 7.72837 22.9951 7.23704 22.8248 6.792L21.2448 2.644C21.1727 2.45468 21.0447 2.29173 20.878 2.17673C20.7112 2.06173 20.5134 2.0001 20.3108 2H3.68879Z" stroke="white" stroke-linecap="round" stroke-linejoin="round"/>
<path d="M4.95703 13H11.957V19H4.95703V13Z" stroke="white" stroke-linecap="round" stroke-linejoin="round"/>
<path d="M13.957 22V13.5C13.957 13.3674 14.0097 13.2402 14.1035 13.1464C14.1972 13.0527 14.3244 13 14.457 13H18.457C18.5896 13 18.7168 13.0527 18.8106 13.1464C18.9044 13.2402 18.957 13.3674 18.957 13.5V22" stroke="white" stroke-linecap="round" stroke-linejoin="round"/>
<path d="M20.957 9.90803V21C20.957 21.2652 20.8517 21.5196 20.6641 21.7071C20.4766 21.8947 20.2222 22 19.957 22H3.95703C3.69181 22 3.43746 21.8947 3.24992 21.7071C3.06239 21.5196 2.95703 21.2652 2.95703 21V9.88403" stroke="white" stroke-linecap="round" stroke-linejoin="round"/>
</svg>
