<?xml version="1.0" encoding="UTF-8"?>
<svg version="1.1" xmlns="http://www.w3.org/2000/svg" xmlns:xlink="http://www.w3.org/1999/xlink" width="30px" viewBox="0 0 98 94" fill="none"><path d="M87.6433 37.5483L85.6371 35.5419L74.4578 46.7212C73.8755 36.0652 68.7419 26.2596 60.355 19.7032C61.639 17.6376 62.3832 15.2031 62.3832 12.5973V7.11291H48.2947C46.6976 7.11291 45.1651 7.39339 43.7417 7.90479L45.3705 1.81681L39.8888 0.350098L37.3195 9.95322C34.2498 5.66221 29.2259 2.86035 23.5596 2.86035H5.87624V9.19036C5.87624 14.425 8.26755 19.1115 12.0149 22.2153C4.81102 29.1467 0.744141 38.6242 0.744141 48.757C0.744141 69.0962 17.2912 85.6433 37.6304 85.6433C39.2643 85.6433 40.9001 85.5337 42.5146 85.3204C48.7294 90.8722 56.5637 93.6498 64.3988 93.6498C72.8169 93.6498 81.2347 90.4457 87.6431 84.037C100.46 71.22 100.46 50.3651 87.6433 37.5483Z" fill="white"></path><path d="M87.6433 37.5483L85.6371 35.5419L74.4578 46.7212C73.8755 36.0652 68.7419 26.2596 60.355 19.7032C61.639 17.6376 62.3832 15.2031 62.3832 12.5973V7.11291H48.2947C46.6976 7.11291 45.1651 7.39339 43.7417 7.90479L45.3705 1.81681L39.8888 0.350098L37.3195 9.95322C34.2498 5.66221 29.2259 2.86035 23.5596 2.86035H5.87624V9.19036C5.87624 14.425 8.26755 19.1115 12.0149 22.2153C4.81102 29.1467 0.744141 38.6242 0.744141 48.757C0.744141 69.0962 17.2912 85.6432 37.6304 85.6432C39.2643 85.6432 40.9001 85.5337 42.5146 85.3204C48.7294 90.8722 56.5637 93.6498 64.3988 93.6498C72.8169 93.6498 81.2347 90.4457 87.6431 84.037C100.46 71.22 100.46 50.3651 87.6433 37.5483ZM62.1591 67.0451L62.2739 76.6861C59.734 76.3517 57.3342 75.4224 55.2426 73.9615L62.1591 67.0451ZM67.9458 76.4313L67.8361 67.208L74.1488 73.5206C72.3058 74.9385 70.1973 75.9253 67.9458 76.4313ZM77.9776 69.3244L71.7098 63.0566L80.2741 62.9858C79.9706 65.2031 79.2066 67.3688 77.9776 69.3244ZM71.8231 57.3809L77.5659 51.6381C78.7787 53.3808 79.6047 55.3125 80.0462 57.3129L71.8231 57.3809ZM56.706 12.7875C56.6049 17.0157 53.1337 20.424 48.8815 20.424H40.4699C40.5715 16.1961 44.0424 12.7875 48.2944 12.7875H56.706ZM11.551 8.53476H23.5594C29.7537 8.53476 34.7931 13.5741 34.7931 19.7684V20.4238H22.7847C16.5904 20.4238 11.551 15.3845 11.551 9.19017V8.53476ZM6.41874 48.757C6.41874 39.612 10.3337 31.0965 17.2107 25.1535C18.9568 25.765 20.8324 26.0986 22.7847 26.0986H48.8815C51.6591 26.0986 54.2428 25.2549 56.3916 23.8112C64.2232 29.7018 68.8418 38.8829 68.8418 48.757C68.8418 50.0313 68.763 51.3093 68.6101 52.5687L41.4426 79.7362C40.1811 79.8895 38.9054 79.9687 37.6304 79.9687C20.4203 79.9685 6.41874 65.9671 6.41874 48.757ZM83.6307 80.0244C73.7039 89.9512 57.9489 90.585 47.2774 81.9268L51.1842 78.0199C54.9576 80.9268 59.5568 82.5023 64.3988 82.5023C70.1977 82.5023 75.6496 80.2441 79.7499 76.1436C87.5346 68.3589 88.1592 56.085 81.6251 47.5789L85.5331 43.6709C94.1912 54.3425 93.5575 70.0977 83.6307 80.0244Z" fill="#64737F"></path></svg>