<?xml version="1.0" encoding="UTF-8"?>
<svg version="1.1" xmlns="http://www.w3.org/2000/svg" xmlns:xlink="http://www.w3.org/1999/xlink" width="27px" viewBox="0 0 92 90" fill="none"><path d="M87.5122 32.7081C87.9739 30.5388 87.8771 28.3557 87.217 26.3014C85.0737 19.6275 78.0002 15.9803 71.4025 18.1493C68.6861 19.0423 66.0789 20.2721 63.6317 21.8045C64.316 18.9765 64.6665 16.0874 64.6665 13.1976C64.6665 6.19617 59.0363 0.5 52.116 0.5C49.9826 0.5 47.9023 1.08055 46.007 2.1931C44.1118 1.08055 42.0315 0.5 39.8981 0.5C32.9778 0.5 27.3476 6.19617 27.3476 13.1976C27.3476 16.0874 27.698 18.9763 28.3824 21.8045C25.9353 20.2723 23.3282 19.0423 20.6115 18.1493C14.016 15.9808 6.94089 19.6256 4.79719 26.3011C4.13718 28.3552 4.04032 30.5379 4.50166 32.707C-2.3851 39.0039 -0.0773727 51.0476 9.07944 54.0574C11.7963 54.9506 14.6195 55.5059 17.4897 55.7215C15.2929 57.6027 13.3317 59.7309 11.6525 62.0689C7.57531 67.7462 8.81608 75.6793 14.4287 79.8048C16.1547 81.0738 18.1748 81.8411 20.3549 82.068C21.2418 84.095 22.5875 85.8018 24.3134 87.0709C29.9235 91.1948 37.7642 89.9433 41.8438 84.2617C43.5228 81.9237 44.9177 79.3782 46.007 76.6835C47.0966 79.3784 48.4912 81.9237 50.1702 84.2617C54.2472 89.9392 62.0883 91.1964 67.701 87.0709C69.4268 85.802 70.7724 84.0954 71.6591 82.0682C73.8391 81.8413 75.8595 81.074 77.5852 79.8052C83.1967 75.6806 84.4394 67.7473 80.3616 62.0692C78.6826 59.731 76.7212 57.6029 74.5244 55.7217C77.3938 55.5061 80.2181 54.9506 82.9343 54.0577C92.0808 51.0512 94.3737 38.9946 87.5122 32.7081Z" fill="white"></path><path d="M87.5122 32.7081C87.9739 30.5388 87.8771 28.3557 87.217 26.3014C85.0737 19.6275 78.0002 15.9803 71.4025 18.1493C68.6861 19.0423 66.0789 20.2721 63.6317 21.8045C64.316 18.9765 64.6665 16.0874 64.6665 13.1976C64.6665 6.19617 59.0363 0.5 52.116 0.5C49.9826 0.5 47.9023 1.08055 46.007 2.1931C44.1118 1.08055 42.0315 0.5 39.8981 0.5C32.9778 0.5 27.3476 6.19617 27.3476 13.1976C27.3476 16.0874 27.698 18.9763 28.3824 21.8045C25.9353 20.2723 23.3282 19.0423 20.6115 18.1493C14.016 15.9808 6.94089 19.6256 4.79719 26.3011C4.13718 28.3552 4.04032 30.5379 4.50166 32.707C-2.3851 39.0039 -0.0773727 51.0476 9.07944 54.0574C11.7963 54.9506 14.6195 55.5059 17.4897 55.7215C15.2929 57.6027 13.3317 59.7309 11.6525 62.0689C7.57531 67.7462 8.81608 75.6793 14.4287 79.8048C16.1547 81.0738 18.1748 81.8411 20.3549 82.068C21.2418 84.095 22.5875 85.8018 24.3134 87.0709C29.9235 91.1948 37.7642 89.9433 41.8438 84.2617C43.5228 81.9237 44.9177 79.3782 46.007 76.6835C47.0966 79.3784 48.4912 81.9237 50.1702 84.2617C54.2472 89.9392 62.0883 91.1964 67.701 87.0709C69.4268 85.802 70.7724 84.0954 71.6591 82.0682C73.8391 81.8413 75.8595 81.074 77.5852 79.8052C83.1967 75.6806 84.4395 67.7473 80.3616 62.0692C78.6826 59.731 76.7212 57.6029 74.5244 55.7217C77.3938 55.5061 80.2182 54.9506 82.9343 54.0577C92.0808 51.0512 94.3737 38.9946 87.5122 32.7081ZM46.007 54.4376C41.5975 54.4376 38.0101 50.8082 38.0101 46.347C38.0101 41.8858 41.5975 38.2563 46.007 38.2563C50.4165 38.2563 54.0039 41.8858 54.0039 46.347C54.0039 50.8082 50.4165 54.4376 46.007 54.4376ZM39.8981 5.89376C41.8652 5.89376 43.402 6.80081 44.3449 7.56151C45.3172 8.34612 46.6965 8.3463 47.6691 7.56151C48.6121 6.80063 50.1491 5.89358 52.116 5.89358C56.0966 5.89358 59.3352 9.17011 59.3352 13.1975C59.3352 25.8953 52.1016 32.9489 51.5237 34.0767C50.6218 33.6599 49.668 33.339 48.6727 33.1339V19.3782C48.6727 17.8888 47.4792 16.6813 46.007 16.6813C44.5349 16.6813 43.3414 17.8888 43.3414 19.3782V33.1339C42.346 33.3392 41.3923 33.6601 40.4904 34.0767C39.932 32.9873 32.6789 25.8379 32.6789 13.1975C32.6789 9.17029 35.9174 5.89376 39.8981 5.89376ZM10.7268 48.9275C5.20663 47.1132 3.94845 39.3565 9.03377 35.9611C10.0719 35.268 10.4983 33.9404 10.0611 32.7622C9.63709 31.6198 9.25928 29.8608 9.8674 27.9679C11.1002 24.1297 15.1685 22.0308 18.964 23.2788C30.9 27.2024 35.2976 36.3446 36.179 37.2493C35.5046 37.9944 34.9141 38.8175 34.417 39.7011L21.4791 35.448C20.0787 34.9875 18.575 35.763 18.1202 37.1794C17.6653 38.596 18.4314 40.1174 19.8316 40.5776L32.7654 44.8293C32.6501 45.866 32.6499 46.8254 32.7654 47.8639C31.5691 48.0647 22.6077 52.8335 10.7268 48.9275ZM37.5307 81.0914C35.1856 84.3568 30.6755 85.0805 27.4471 82.7076C25.8557 81.5375 25.139 79.8895 24.8182 78.7129C24.4866 77.4974 23.3685 76.6797 22.1288 76.7363C20.9237 76.791 19.1534 76.611 17.5622 75.4413C14.3345 73.0687 13.6196 68.5054 15.9653 65.2393C23.3422 54.9667 33.2941 53.5611 34.4168 52.9926C34.9139 53.8765 35.5044 54.6994 36.1788 55.4444L28.1821 66.58C27.3168 67.785 27.5807 69.4716 28.7717 70.347C29.9574 71.2187 31.6259 70.9609 32.4951 69.7505L40.4901 58.6172C41.3919 59.034 42.3457 59.3549 43.341 59.5601C43.1601 60.7737 44.875 70.8639 37.5307 81.0914ZM76.0487 65.2395C78.394 68.5053 77.6801 73.0684 74.4517 75.4416C72.8606 76.6112 71.0889 76.7917 69.8854 76.7365C68.642 76.6797 67.5269 77.5001 67.196 78.7131C66.8749 79.8895 66.1583 81.5375 64.5673 82.7074C61.3398 85.0799 56.8286 84.3577 54.4836 81.0914C47.1063 70.819 48.8585 60.804 48.6727 59.5602C49.668 59.3549 50.6218 59.0342 51.5235 58.6174L59.5184 69.7507C60.3864 70.9591 62.054 71.2203 63.2418 70.3472C64.4328 69.4718 64.6969 67.7852 63.8316 66.5802L55.8349 55.4446C56.5093 54.6996 57.0998 53.8765 57.5969 52.9928C58.6818 53.5421 68.7044 55.0126 76.0487 65.2395ZM81.2871 48.9277C69.3543 52.8502 60.475 48.0697 59.2487 47.8642C59.364 46.8276 59.3642 45.8682 59.2487 44.8297L72.1825 40.578C73.5827 40.1177 74.349 38.5963 73.894 37.1797C73.4391 35.7631 71.9348 34.9879 70.5353 35.4483L57.5974 39.7013C57.1003 38.8175 56.5098 37.9945 55.8354 37.2493C56.687 36.3753 61.1674 27.1853 73.0504 23.2788C76.8447 22.0314 80.9139 24.1283 82.147 27.9683C82.755 29.8606 82.3771 31.6198 81.9531 32.7622C81.516 33.9404 81.9421 35.268 82.9805 35.9611C88.0217 39.3272 86.8092 47.1127 81.2871 48.9277Z" fill="#64737F"></path></svg>