<svg width="140" height="38" viewBox="0 0 140 38" fill="none" xmlns="http://www.w3.org/2000/svg">
<g clip-path="url(#clip0_119_2347)">
<mask id="mask0_119_2347" style="mask-type:luminance" maskUnits="userSpaceOnUse" x="0" y="0" width="140" height="38">
<path d="M139.832 0H0V37.193H139.832V0Z" fill="white"/>
</mask>
<g mask="url(#mask0_119_2347)">
<path d="M124.037 16.1773C122.854 14.185 123.515 11.6096 125.506 10.4253C127.497 9.24093 130.07 9.90198 131.254 11.8943C131.955 13.0786 132.034 14.5339 131.456 15.7871C129.882 13.8131 127.01 13.4918 125.037 15.0618C124.643 15.3739 124.308 15.7504 124.037 16.1727M130.639 18.6425C130.639 20.1619 129.405 21.3968 127.886 21.3968C126.368 21.3968 125.134 20.1619 125.134 18.6425C125.134 17.1322 126.349 15.9019 127.859 15.8881C129.377 15.8881 130.607 17.1138 130.611 18.6333V18.6425M137.951 18.6425C137.951 20.1619 136.717 21.3968 135.199 21.3968C133.681 21.3968 132.446 20.1619 132.446 18.6425C132.446 17.1229 133.681 15.8881 135.199 15.8881C135.199 15.8881 135.199 15.8881 135.203 15.8881C136.722 15.8881 137.951 17.1183 137.951 18.6379C137.951 18.6379 137.951 18.6379 137.951 18.6425ZM131.781 23.2239C131.813 25.5421 129.965 27.4472 127.648 27.4793C125.331 27.5115 123.427 25.6614 123.395 23.3432C123.386 22.5628 123.593 21.7962 123.992 21.1259C125.349 23.2514 128.171 23.8757 130.3 22.5169C130.722 22.2461 131.098 21.9064 131.41 21.5162C131.653 22.0578 131.781 22.6455 131.781 23.2376M118.234 18.647C119.73 18.3532 121.074 17.5499 122.033 16.3701C122.266 17.1918 122.666 17.9585 123.207 18.6195C122.666 19.2851 122.266 20.0563 122.033 20.8826C121.065 19.7121 119.72 18.9133 118.234 18.6287M135.254 14.0702C134.726 14.0702 134.208 14.162 133.712 14.3365V14.0702C133.694 10.7145 130.96 8.00607 127.607 8.01983C125.506 8.029 123.555 9.12613 122.46 10.9211C122.125 11.527 121.872 12.1743 121.698 12.8445C121.436 13.7351 120.959 14.543 120.313 15.2041C119.675 15.8973 118.826 16.3609 117.899 16.5262C117.161 16.6456 116.404 16.6456 115.665 16.5262C115.087 16.4573 114.5 16.5445 113.968 16.7786C113.463 17.1138 112.977 17.481 112.509 17.8758C112.33 17.9814 112.101 17.9631 111.945 17.8299C111.724 17.6371 111.555 17.3066 111.325 17.3066C111.096 17.3066 111.022 17.6876 110.715 17.6876C110.408 17.6876 110.408 17.3066 110.101 17.3066C109.793 17.3066 109.793 17.6876 109.486 17.6876C109.178 17.6876 109.178 17.3066 108.871 17.3066C108.564 17.3066 108.307 17.5269 107.995 17.5269C107.641 17.5453 107.32 17.3341 107.192 17.0036L107.146 16.8475C107.105 16.6318 106.995 16.439 106.83 16.292C106.802 16.2599 106.775 16.237 106.742 16.214C106.568 16.0901 106.362 16.0212 106.151 16.0212H105.963C105.683 16.0075 105.408 16.1084 105.196 16.292C105.082 16.4023 105.004 16.5445 104.967 16.7006C104.903 16.8843 104.797 17.0449 104.66 17.178C104.458 17.3571 104.196 17.4489 103.93 17.4397H89.1124C88.9061 17.4351 88.7364 17.5958 88.732 17.8024C88.732 17.8116 88.732 17.8161 88.732 17.8253V19.3999C88.7271 19.6065 88.8875 19.7763 89.0944 19.7809C89.1037 19.7809 89.1081 19.7809 89.1174 19.7809H90.0026V23.6691C90.0026 23.8069 90.1079 23.9216 90.2504 23.9262H90.2597H92.1633C92.3008 23.9262 92.4154 23.8206 92.4204 23.6783V23.6691V21.865H94.2782V23.6691C94.2782 23.8069 94.3835 23.9216 94.5259 23.9262H94.5352H96.4116C96.5491 23.9262 96.6637 23.8206 96.6681 23.6783V23.6691V19.8176H103.935C104.201 19.8084 104.462 19.9048 104.664 20.0793C104.802 20.2124 104.912 20.3731 104.971 20.5567C105.009 20.7128 105.091 20.8551 105.201 20.9653C105.412 21.1535 105.688 21.2499 105.967 21.2361H106.155C106.366 21.2361 106.577 21.1673 106.747 21.0433C106.779 21.0204 106.807 20.9929 106.834 20.9653C106.995 20.8184 107.109 20.6256 107.151 20.4098L107.197 20.2538C107.325 19.9233 107.646 19.7121 107.999 19.7304C108.307 19.7304 108.564 19.9508 108.876 19.9508C109.188 19.9508 109.178 19.5697 109.49 19.5697C109.803 19.5697 109.793 19.9508 110.105 19.9508C110.417 19.9508 110.408 19.5697 110.72 19.5697C111.032 19.5697 111.022 19.9508 111.33 19.9508C111.638 19.9508 111.729 19.6478 111.949 19.4504C112.11 19.3173 112.334 19.2989 112.513 19.4045C112.977 19.7993 113.463 20.1619 113.972 20.5017C114.504 20.7357 115.092 20.8184 115.67 20.7496C116.409 20.6302 117.165 20.6302 117.904 20.7496C118.84 20.9194 119.693 21.3922 120.331 22.0946C120.977 22.7602 121.45 23.5728 121.716 24.4587C121.886 25.129 122.143 25.7762 122.478 26.3776C124.23 29.2421 127.974 30.1373 130.832 28.3837C132.625 27.2819 133.722 25.3355 133.731 23.2331V22.9668C136.107 23.8206 138.727 22.5812 139.576 20.2033C139.75 19.7121 139.841 19.1888 139.841 18.6654C139.837 16.1406 137.791 14.0978 135.272 14.0978" fill="#E11F2F"/>
<path d="M19.9006 0H17.6069V7.46891H8.45476V0H6.17017V17.1275H8.45476V9.46121H17.6069V17.1275H19.9006V0Z" fill="white"/>
<path d="M30.2272 2.3917H30.3281L33.31 10.6547H27.2453L30.2272 2.3917ZM31.6676 0H28.984L22.6165 17.1275H24.9056L26.5205 12.6471H34.0211L35.6405 17.1275H38.026L31.6676 0Z" fill="white"/>
<path d="M43.0446 1.99232V9.1628H47.3202C49.8066 9.1628 50.9903 7.46891 50.9903 5.49035C50.9903 3.5118 49.7929 2.00609 47.3202 2.00609L43.0446 1.99232ZM40.7555 0H47.2239C51.1279 0 53.2932 2.26775 53.2932 5.47658C53.2932 8.68543 51.1279 11.1506 47.2239 11.1506H43.0309V17.1275H40.7417L40.7555 0Z" fill="white"/>
<path d="M58.8534 1.99232V9.1628H63.1288C65.6197 9.1628 66.7992 7.46891 66.7992 5.49035C66.7992 3.5118 65.6018 2.00609 63.1288 2.00609L58.8534 1.99232ZM56.5642 0H63.0372C66.946 0 69.1018 2.26775 69.1018 5.47658C69.1018 8.68543 66.9411 11.1506 63.0372 11.1506H58.8442V17.1275H56.5642V0Z" fill="white"/>
<path d="M81.695 0L76.8687 8.07025H76.7678L72.1391 0H69.5559L75.6255 10.4068V17.1275H77.9101V10.2324L84.08 0H81.695Z" fill="white"/>
<path d="M77.91 20.0656H75.3733L69.1018 37.193H71.3957L76.5156 22.4527H76.6166L81.7452 37.193H84.1351L77.91 20.0656Z" fill="white"/>
<path d="M66.8171 26.5383L63.8307 34.8013H63.7297L60.7572 26.5383H66.8171ZM69.1432 20.0426L67.5239 24.523H60.0232L58.4084 20.0426H56.0366L62.404 37.1701H65.0925L71.4415 20.0426H69.1389H69.1432Z" fill="white"/>
<path d="M54.0272 20.0656H43.375V22.0533H51.738V37.193H54.0272V20.0656Z" fill="white"/>
<path d="M40.7555 20.0656H30.1079V22.0533H38.4618V37.193H40.7555V20.0656Z" fill="white"/>
<path d="M27.8281 20.0656H16.084V22.0533H25.5343V27.7823H18.1759V29.7747H25.5343V35.2007H16.2812V37.193H27.8281V20.0656Z" fill="white"/>
<path d="M8.45482 26.7861V20.0656H6.17022V26.956L0 37.193H2.38551L7.21161 29.1228H7.31252L11.9367 37.193H14.5241L8.45482 26.7861Z" fill="white"/>
</g>
</g>
<defs>
<clipPath id="clip0_119_2347">
<rect width="140" height="37.193" fill="white"/>
</clipPath>
</defs>
</svg>
