<?xml version="1.0" encoding="UTF-8"?>
<svg version="1.1" xmlns="http://www.w3.org/2000/svg" xmlns:xlink="http://www.w3.org/1999/xlink" width="27px" viewBox="0 0 98 98" fill="none"><path d="M96.7899 42.0104L92.5905 37.8115L96.6298 4.54566C96.7354 3.67637 96.4353 2.80688 95.8162 2.18772C95.197 1.56856 94.3275 1.26886 93.4582 1.37407L60.1922 5.41268L55.9927 1.2134C55.0583 0.278958 53.6038 0.109733 52.4802 0.804865L30.3914 14.4614L26.8057 10.8759C26.1799 10.2501 25.2987 9.95116 24.421 10.0655C23.5434 10.1804 22.7692 10.6968 22.3258 11.4628L9.93912 32.8588L8.72359 31.6435C8.05353 30.9736 7.09459 30.6807 6.16452 30.8617C5.23464 31.0429 4.45556 31.6744 4.08596 32.5467C0.491598 41.0304 -0.516343 50.3189 1.17135 59.4085C2.90025 68.7198 7.36675 77.1943 14.0879 83.9151C22.9259 92.7526 34.6776 97.6206 47.1773 97.6211H47.1792C53.506 97.6211 59.6557 96.3746 65.457 93.9168C66.3293 93.5472 66.9608 92.7679 67.142 91.8381C67.3232 90.9082 67.0299 89.949 66.3599 89.279L65.1451 88.0642L86.5402 75.677C87.3061 75.2335 87.8224 74.4592 87.9375 73.5817C88.0524 72.7041 87.753 71.8228 87.1272 71.197L83.542 67.6116L97.1987 45.5227C97.8936 44.3991 97.7244 42.9449 96.7899 42.0104Z" fill="white"></path><path d="M96.7899 42.0104L92.5905 37.8115L96.6298 4.54566C96.7354 3.67637 96.4353 2.80688 95.8162 2.18772C95.197 1.56856 94.3275 1.26886 93.4582 1.37407L60.1922 5.41268L55.9927 1.2134C55.0583 0.278958 53.6038 0.109733 52.4802 0.804865L30.3914 14.4614L26.8057 10.8759C26.1799 10.2501 25.2987 9.95116 24.421 10.0655C23.5434 10.1804 22.7692 10.6968 22.3258 11.4628L9.93912 32.8588L8.72359 31.6434C8.05353 30.9736 7.09459 30.6807 6.16452 30.8617C5.23464 31.0429 4.45556 31.6744 4.08596 32.5467C0.491598 41.0304 -0.516343 50.3189 1.17135 59.4085C2.90025 68.7198 7.36675 77.1943 14.0879 83.9151C14.0881 83.9153 14.0881 83.9155 14.0883 83.9155V83.9156C14.0883 83.9156 14.0883 83.9158 14.0884 83.9158C22.9265 92.7533 34.6776 97.6206 47.1773 97.6211H47.1792C53.506 97.6211 59.6557 96.3746 65.457 93.9168C66.3293 93.5472 66.9608 92.7679 67.142 91.8381C67.3232 90.9082 67.0299 89.949 66.3599 89.279L65.1451 88.0642L86.5402 75.677C87.3061 75.2335 87.8224 74.4592 87.9375 73.5817C88.0524 72.7041 87.753 71.8228 87.1272 71.197L83.542 67.6116L97.1987 45.5227C97.8936 44.3991 97.7244 42.9448 96.7899 42.0104ZM77.5099 66.5337C76.815 67.6575 76.9842 69.1118 77.9184 70.0462L80.4764 72.6042L59.0809 84.9916C58.315 85.4351 57.7986 86.2094 57.6837 87.087C57.5687 87.9647 57.8683 88.8459 58.4941 89.4718L59.17 90.1475C55.2989 91.3275 51.2824 91.9237 47.1796 91.9237C47.1792 91.9237 47.1782 91.9237 47.1779 91.9237C37.1552 91.9233 27.6817 88.3584 20.2018 81.8318L27.6439 74.3897H52.3619C53.9353 74.3897 55.2108 73.1141 55.2108 71.5408C55.2108 69.9674 53.9353 68.6919 52.3619 68.6919H33.3417L48.3639 53.6698L73.0823 53.6702C74.6557 53.6702 75.9312 52.3946 75.9312 50.8213C75.9312 49.2479 74.6559 47.9724 73.0823 47.9724L54.0617 47.972L69.917 32.1171C71.0296 31.0047 71.0296 29.2008 69.917 28.0882C68.8044 26.9754 67.0007 26.9758 65.8881 28.0882L50.0307 43.9454L50.0311 24.921C50.0311 23.3476 48.7558 22.0721 47.1822 22.0721C45.6089 22.0721 44.3333 23.3476 44.3333 24.921L44.3328 49.6432L29.3113 64.6645L29.3107 45.6412C29.3107 44.0677 28.0351 42.7923 26.4618 42.7923C24.8884 42.7923 23.6129 44.0679 23.6129 45.6412L23.6137 70.3621L16.1714 77.8042C6.79773 67.0612 3.69775 52.3901 7.85354 38.831L8.53252 39.51C9.15852 40.136 10.0398 40.4348 10.9172 40.3203C11.7949 40.2053 12.569 39.6887 13.0125 38.923L25.3992 17.5273L27.9571 20.0853C28.8917 21.0199 30.3458 21.1887 31.4696 20.494L53.5586 6.83751L57.1444 10.4231C57.7636 11.0423 58.6331 11.3418 59.5022 11.2366L90.5355 7.46882L86.7671 38.5021C86.6615 39.3712 86.9616 40.2407 87.581 40.86L91.1666 44.4453L77.5099 66.5337Z" fill="#64737F"></path></svg>