<?xml version="1.0" encoding="utf-8"?>
<svg version="1.1" id="Layer_1" xmlns="http://www.w3.org/2000/svg" xmlns:xlink="http://www.w3.org/1999/xlink" x="0px" y="0px"
	 viewBox="0 0 20 20" style="enable-background:new 0 0 20 20;" xml:space="preserve">
  <style type="text/css">
    .st0{fill:#FFFFFF;}
    .st1{fill:#9298A1;}
    .st2{fill:#979797;}
  </style>
  <g>
    <path class="st0" d="M19.5,10c0,5.2-4.3,9.5-9.5,9.5c-5.3,0-9.5-4.3-9.5-9.5S4.8,0.5,10,0.5S19.5,4.8,19.5,10z"/>
    <path class="st1" d="M10,15.5c-0.3,0-0.5-0.2-0.5-0.5V6c0-0.3,0.2-0.5,0.5-0.5s0.5,0.2,0.5,0.5v9C10.5,15.3,10.3,15.5,10,15.5z"/>
    <path class="st1" d="M13,13c-0.3,0-0.5-0.2-0.5-0.5v-4C12.5,8.2,12.7,8,13,8s0.5,0.2,0.5,0.5v4C13.5,12.8,13.3,13,13,13z"/>
    <path class="st1" d="M6.5,13C6.2,13,6,12.8,6,12.5v-4C6,8.2,6.2,8,6.5,8S7,8.2,7,8.5v4C7,12.8,6.7,13,6.5,13z"/>
    <path class="st2" d="M10,20C4.5,20,0,15.5,0,10S4.5,0,10,0s10,4.5,10,10S15.5,20,10,20z M10,1c-5,0-9,4-9,9s4.1,9,9,9s9-4,9-9
      S15,1,10,1z"/>
  </g>
</svg>
