<svg width="25" height="24" viewBox="0 0 25 24" fill="none" xmlns="http://www.w3.org/2000/svg">
<path fill-rule="evenodd" clip-rule="evenodd" d="M23.7302 14.8038C23.6911 14.6993 23.6212 14.6091 23.5298 14.5451L10.4358 1.44406C9.96395 1.02081 9.36172 0.771382 8.72879 0.737061H2.23779C1.97258 0.737061 1.71822 0.842417 1.53069 1.02995C1.34315 1.21749 1.23779 1.47184 1.23779 1.73706L1.24379 8.23106C1.27895 8.86399 1.52866 9.46605 1.95179 9.93806L15.0438 23.0291C15.1075 23.121 15.1977 23.1913 15.3024 23.2308C15.407 23.2702 15.5212 23.2768 15.6298 23.2498C15.7383 23.2228 15.836 23.1634 15.91 23.0795C15.9839 22.9956 16.0306 22.8911 16.0438 22.7801L17.7368 17.2371L23.2808 15.5451C23.3916 15.5314 23.4956 15.4845 23.5791 15.4105C23.6627 15.3365 23.7218 15.2389 23.7488 15.1306C23.7758 15.0223 23.7693 14.9084 23.7302 14.8038ZM4.8226 7.15127C4.44753 6.7762 4.23682 6.26749 4.23682 5.73706C4.23682 5.20663 4.44753 4.69792 4.8226 4.32285C5.19768 3.94777 5.70638 3.73706 6.23682 3.73706C6.76725 3.73706 7.27596 3.94777 7.65103 4.32285C8.0261 4.69792 8.23682 5.20663 8.23682 5.73706C8.23682 6.26749 8.0261 6.7762 7.65103 7.15127C7.27596 7.52635 6.76725 7.73706 6.23682 7.73706C5.70638 7.73706 5.19768 7.52635 4.8226 7.15127Z" fill="#E11F2F"/>
<path d="M23.5298 14.5451L23.1761 14.8985C23.1967 14.9191 23.2191 14.9379 23.243 14.9546L23.5298 14.5451ZM10.4358 1.44406L10.7894 1.0906C10.783 1.08418 10.7764 1.07793 10.7697 1.07186L10.4358 1.44406ZM8.72879 0.737061L8.75587 0.237794C8.74685 0.237305 8.73782 0.237061 8.72879 0.237061V0.737061ZM1.53069 1.02995L1.88424 1.38351L1.88424 1.38351L1.53069 1.02995ZM1.23779 1.73706H0.737793L0.737793 1.73752L1.23779 1.73706ZM1.24379 8.23106L0.743793 8.23152C0.743802 8.24062 0.744058 8.24971 0.744562 8.25879L1.24379 8.23106ZM1.95179 9.93806L1.57949 10.2718C1.58556 10.2786 1.59182 10.2852 1.59825 10.2916L1.95179 9.93806ZM15.0438 23.0291L15.4547 22.7442C15.4377 22.7196 15.4185 22.6966 15.3973 22.6755L15.0438 23.0291ZM16.0438 22.7801L15.5656 22.634C15.5569 22.6625 15.5508 22.6916 15.5473 22.7212L16.0438 22.7801ZM17.7368 17.2371L17.5908 16.7588C17.4317 16.8074 17.3072 16.9319 17.2586 17.091L17.7368 17.2371ZM23.2808 15.5451L23.2195 15.0488C23.1908 15.0524 23.1625 15.0584 23.1348 15.0668L23.2808 15.5451ZM23.243 14.9546C23.2516 14.9607 23.2582 14.9692 23.2619 14.979L24.1985 14.6287C24.124 14.4294 23.9908 14.2575 23.8166 14.1355L23.243 14.9546ZM10.0821 1.79752L23.1761 14.8985L23.8834 14.1916L10.7894 1.0906L10.0821 1.79752ZM8.70172 1.23633C9.22089 1.26448 9.71489 1.46908 10.1019 1.81626L10.7697 1.07186C10.213 0.572544 9.50255 0.278284 8.75587 0.237794L8.70172 1.23633ZM2.23779 1.23706H8.72879V0.237061H2.23779V1.23706ZM1.88424 1.38351C1.97801 1.28974 2.10518 1.23706 2.23779 1.23706V0.237061C1.83997 0.237061 1.45844 0.395096 1.17713 0.6764L1.88424 1.38351ZM1.73779 1.73706C1.73779 1.60445 1.79047 1.47728 1.88424 1.38351L1.17713 0.6764C0.895828 0.957705 0.737793 1.33924 0.737793 1.73706H1.73779ZM1.74379 8.2306L1.73779 1.7366L0.737793 1.73752L0.743793 8.23152L1.74379 8.2306ZM2.3241 9.60431C1.97682 9.21692 1.77188 8.72279 1.74302 8.20333L0.744562 8.25879C0.786018 9.00518 1.0805 9.71519 1.57949 10.2718L2.3241 9.60431ZM15.3973 22.6755L2.30533 9.58449L1.59825 10.2916L14.6903 23.3826L15.3973 22.6755ZM15.4786 22.7629C15.469 22.7592 15.4606 22.7527 15.4547 22.7442L14.6329 23.3139C14.7544 23.4893 14.9264 23.6234 15.1261 23.6987L15.4786 22.7629ZM15.509 22.7646C15.4989 22.7671 15.4883 22.7665 15.4786 22.7629L15.1261 23.6987C15.3257 23.7739 15.5435 23.7866 15.7506 23.735L15.509 22.7646ZM15.5349 22.7489C15.528 22.7566 15.519 22.7621 15.509 22.7646L15.7506 23.735C15.9576 23.6835 16.144 23.5701 16.2851 23.4101L15.5349 22.7489ZM15.5473 22.7212C15.5461 22.7314 15.5417 22.7411 15.5349 22.7489L16.2851 23.4101C16.4262 23.25 16.5152 23.0508 16.5403 22.839L15.5473 22.7212ZM17.2586 17.091L15.5656 22.634L16.522 22.9261L18.215 17.3831L17.2586 17.091ZM23.1348 15.0668L17.5908 16.7588L17.8827 17.7153L23.4267 16.0233L23.1348 15.0668ZM23.2476 15.0361C23.2398 15.0431 23.23 15.0475 23.2195 15.0488L23.3421 16.0413C23.5532 16.0152 23.7514 15.9258 23.9106 15.7848L23.2476 15.0361ZM23.2636 15.0098C23.2611 15.02 23.2555 15.0292 23.2476 15.0361L23.9106 15.7848C24.0699 15.6438 24.1826 15.4578 24.234 15.2514L23.2636 15.0098ZM23.2619 14.979C23.2655 14.9888 23.2662 14.9996 23.2636 15.0098L24.234 15.2514C24.2854 15.045 24.273 14.8279 24.1985 14.6287L23.2619 14.979ZM3.73682 5.73706C3.73682 6.4001 4.00021 7.03599 4.46905 7.50483L5.17616 6.79772C4.89485 6.51642 4.73682 6.13489 4.73682 5.73706H3.73682ZM4.46905 3.96929C4.00021 4.43813 3.73682 5.07402 3.73682 5.73706H4.73682C4.73682 5.33924 4.89485 4.9577 5.17616 4.6764L4.46905 3.96929ZM6.23682 3.23706C5.57377 3.23706 4.93789 3.50045 4.46905 3.96929L5.17616 4.6764C5.45746 4.3951 5.83899 4.23706 6.23682 4.23706V3.23706ZM8.00458 3.96929C7.53574 3.50045 6.89986 3.23706 6.23682 3.23706V4.23706C6.63464 4.23706 7.01617 4.3951 7.29748 4.6764L8.00458 3.96929ZM8.73682 5.73706C8.73682 5.07402 8.47342 4.43813 8.00458 3.96929L7.29748 4.6764C7.57878 4.9577 7.73682 5.33924 7.73682 5.73706H8.73682ZM8.00458 7.50483C8.47342 7.03599 8.73682 6.4001 8.73682 5.73706H7.73682C7.73682 6.13489 7.57878 6.51642 7.29748 6.79772L8.00458 7.50483ZM6.23682 8.23706C6.89986 8.23706 7.53574 7.97367 8.00458 7.50483L7.29748 6.79772C7.01617 7.07903 6.63464 7.23706 6.23682 7.23706V8.23706ZM4.46905 7.50483C4.93789 7.97367 5.57378 8.23706 6.23682 8.23706V7.23706C5.83899 7.23706 5.45746 7.07903 5.17616 6.79772L4.46905 7.50483Z" fill="white"/>
<path d="M4.23682 5.73706C4.23682 6.26749 4.44753 6.7762 4.8226 7.15127C5.19768 7.52635 5.70638 7.73706 6.23682 7.73706C6.76725 7.73706 7.27596 7.52635 7.65103 7.15127C8.0261 6.7762 8.23682 6.26749 8.23682 5.73706C8.23682 5.20663 8.0261 4.69792 7.65103 4.32285C7.27596 3.94777 6.76725 3.73706 6.23682 3.73706C5.70638 3.73706 5.19768 3.94777 4.8226 4.32285C4.44753 4.69792 4.23682 5.20663 4.23682 5.73706Z" stroke="white" stroke-linecap="round" stroke-linejoin="round"/>
</svg>
