<?xml version="1.0" encoding="UTF-8"?>
<svg version="1.1" xmlns="http://www.w3.org/2000/svg" xmlns:xlink="http://www.w3.org/1999/xlink" width="25px" viewBox="0 0 75 105" fill="none"><path d="M52.9001 38.7983C73.5823 53.4733 73.8799 87.6152 56.3223 104.836H18.0824C0.227225 87.3157 0.971191 53.3236 22.0998 38.4989H22.8438C15.8505 35.504 11.2379 37.8999 4.83982 40.8948C7.66689 34.6055 9.45241 30.1131 15.7017 26.669C9.75 25.4711 6.17896 27.5675 0.971191 30.1131C5.88137 18.8823 13.1722 10.1971 27.01 14.0905C29.5395 8.54989 32.9618 3.75806 37.7231 0.164185C41.8894 4.05755 43.9725 7.65143 45.4604 13.3417C59.1494 10.6463 64.9523 17.6843 70.7553 29.0649C64.5059 25.6208 61.3813 23.3746 54.0904 25.1716C65.5475 26.3695 69.4161 33.4075 74.0287 42.542C66.7378 38.4989 61.2325 35.3542 52.9001 38.7983ZM28.9443 71.4427C28.9443 70.095 27.9028 69.0468 26.5636 69.0468C25.2245 69.0468 24.1829 70.095 24.1829 71.4427C24.1829 72.7904 25.2245 73.9884 26.5636 73.9884C27.9028 73.9884 28.9443 72.7904 28.9443 71.4427ZM39.8062 54.821C39.8062 53.4733 38.7647 52.4251 37.4256 52.4251C36.0864 52.4251 34.8961 53.4733 34.8961 54.821C34.8961 56.1687 36.0864 57.217 37.4256 57.217C38.7647 57.217 39.8062 56.1687 39.8062 54.821ZM39.8062 88.2141C39.8062 86.8664 38.7647 85.6685 37.4256 85.6685C36.0864 85.6685 34.8961 86.8664 34.8961 88.2141C34.8961 89.5618 36.0864 90.6101 37.4256 90.6101C38.7647 90.6101 39.8062 89.5618 39.8062 88.2141ZM50.6682 71.4427C50.6682 70.095 49.4778 69.0468 48.1387 69.0468C46.7995 69.0468 45.758 70.095 45.758 71.4427C45.758 72.7904 46.7995 73.9884 48.1387 73.9884C49.4778 73.9884 50.6682 72.7904 50.6682 71.4427ZM30.5811 15.2884C32.069 16.0371 33.4081 17.0854 34.7473 18.1336C36.9792 16.4864 39.3599 15.1387 41.8894 14.2402C40.9966 11.0956 39.5087 7.80117 37.4256 5.25551C34.7473 7.95092 32.2178 11.994 30.5811 15.2884ZM21.3559 24.5726C24.0342 24.1234 26.5636 23.9736 29.0931 24.4228C29.9859 23.0751 30.8786 21.8772 31.9202 20.829C30.8786 19.7808 29.6883 19.032 28.3492 18.5828C21.8023 15.5879 13.7674 17.3848 9.00603 22.7757C13.1722 22.1767 17.636 22.7757 21.3559 24.5726ZM32.9618 25.6208C35.0449 26.3695 37.128 27.5675 38.9135 29.2147C45.4604 24.4228 52.9001 19.7808 61.3813 20.9787C53.0489 13.0422 39.0623 16.7859 32.9618 25.6208ZM29.9859 38.4989H31.4738C32.5154 35.8035 34.1521 33.5573 35.9376 31.6106C29.0931 26.07 18.6776 26.9685 12.8747 33.707C18.9752 32.6588 25.2245 34.306 29.9859 38.4989ZM35.64 38.4989H46.2044C51.4121 34.306 58.1078 32.8086 64.5059 34.0065C56.0247 25.6208 41.2942 27.7172 35.64 38.4989ZM35.64 42.2425L28.9443 53.9226L37.2768 68.2981L45.4604 53.9226L38.7647 42.2425H35.64ZM26.8612 57.8159L18.5288 72.1914L26.8612 86.5669L35.0449 72.1914L26.8612 57.8159ZM16.4457 75.9351L10.9403 85.369C12.4283 90.9095 15.1066 96.0009 18.9752 100.194L24.6293 90.3106L16.4457 75.9351ZM9.75 79.8284L14.2138 72.1914L10.0476 64.854C9.15482 69.7955 9.00603 74.8868 9.75 79.8284ZM16.4457 68.2981L24.6293 53.9226L19.7191 45.3871L19.5704 45.5369C15.7017 49.4302 13.0234 54.2221 11.3867 59.6129L16.4457 68.2981ZM26.8612 50.179L31.325 42.2425H23.2902L22.5462 42.8415L26.8612 50.179ZM54.6856 45.3871L49.7754 53.9226L58.1078 68.2981L63.1668 59.6129C61.3813 54.2221 58.703 49.4302 54.9832 45.5369L54.6856 45.3871ZM47.6923 57.8159L39.3599 72.1914L47.6923 86.5669L55.8759 72.1914L47.6923 57.8159ZM37.2768 75.9351L28.9443 90.3106L35.1937 101.092H39.3599L45.4604 90.3106L37.2768 75.9351ZM26.8612 94.0542L22.8438 101.092H30.7299L26.8612 94.0542ZM47.6923 50.179L51.8585 42.8415C51.7097 42.6917 51.4121 42.3922 51.2633 42.2425H43.0797L47.6923 50.179ZM64.3571 64.854L60.1909 72.1914L64.6547 79.8284C65.3987 74.8868 65.2499 69.7955 64.3571 64.854ZM58.1078 75.9351L49.7754 90.3106L55.5783 100.194C59.2982 96.0009 61.9764 90.9095 63.4644 85.369L58.1078 75.9351ZM47.6923 94.0542L43.6749 101.092H51.5609L47.6923 94.0542Z" fill="#64737F"></path></svg>