<?xml version="1.0" encoding="UTF-8"?>
<svg version="1.1" xmlns="http://www.w3.org/2000/svg" xmlns:xlink="http://www.w3.org/1999/xlink" width="30px" viewBox="0 0 97 91" fill="none"><path d="M87.6017 45.6793H78.9811C82.2866 35.9333 82.1552 25.8464 78.1832 17.4857C79.5468 13.4334 78.6943 8.97583 75.6544 5.93622C72.6576 2.93934 68.2158 2.0372 64.1091 3.41346C59.7481 1.34792 54.7962 0.268763 49.5856 0.268555C37.6702 0.268138 25.3662 5.73815 15.8285 15.2759C1.76153 29.3428 -2.90558 48.9741 3.9163 63.4593C2.4704 67.5082 3.21305 72.0857 6.359 75.2319C9.4572 78.3301 14.0378 79.1417 18.1401 77.6748C22.4755 79.7078 27.3898 80.7698 32.5582 80.7698C33.7372 80.7698 34.92 80.7142 36.1036 80.6085C42.5452 86.8051 51.2925 90.6211 60.9155 90.6211C80.7235 90.6213 96.7297 74.5136 96.7295 54.8073C96.7293 49.7622 92.647 45.6793 87.6017 45.6793ZM18.1246 70.5435C15.8592 72.5323 12.6515 72.6789 10.7817 70.8089C8.9122 68.9393 9.05793 65.7317 11.0472 63.466C3.40299 51.4839 6.96634 32.9833 20.2511 19.6984C28.8983 11.0512 39.7543 6.52292 49.5851 6.52312C54.8625 6.52333 59.8453 7.8285 64.0306 10.502C66.2867 8.62932 69.4009 8.5282 71.2317 10.359C73.0624 12.1897 72.9615 15.3038 71.0887 17.5601C76.0157 25.2731 76.2943 35.6904 72.3233 45.6793H34.229C29.1843 45.6789 25.101 49.762 25.1014 54.8075C25.1014 62.0653 27.2737 68.8242 30.9993 74.4725C26.3071 74.2392 21.8923 72.947 18.1246 70.5435ZM31.3562 54.8069C31.356 53.2213 32.6428 51.9339 34.229 51.9341H52.6619L35.21 69.3861C32.7585 65.0812 31.3562 60.1049 31.3562 54.8069ZM38.9157 74.5257L57.7881 55.6532V84.2006C50.3217 83.4117 43.6763 79.8314 38.9157 74.5257ZM64.0429 84.2006V55.6536L82.9154 74.5263C78.0056 79.9974 71.3011 83.4337 64.0429 84.2006ZM86.6209 69.3866L69.1686 51.9341H87.6015C89.1881 51.9341 90.4743 53.2202 90.4743 54.8069C90.4745 60.1051 89.0722 65.0816 86.6209 69.3866Z" fill="#64737F"></path></svg>