<svg width="25" height="24" viewBox="0 0 25 24" fill="none" xmlns="http://www.w3.org/2000/svg">
<g clip-path="url(#clip0_141_4634)">
<path d="M5.24221 21.8919C5.24221 21.1477 4.11151 19.3481 3.9203 19.3481C3.72909 19.3481 2.55396 21.1477 2.55396 21.8919C2.55396 22.2485 2.69557 22.5903 2.94764 22.8424C3.19971 23.0945 3.5416 23.2361 3.89808 23.2361C4.25457 23.2361 4.59645 23.0945 4.84852 22.8424C5.10059 22.5903 5.24221 22.2485 5.24221 21.8919Z" stroke="#D12C35" stroke-linecap="round" stroke-linejoin="round"/>
<path d="M18.6755 1.0839C19.3647 0.394736 20.482 0.394735 21.1712 1.0839V1.0839C21.8603 1.77306 21.8603 2.89041 21.1712 3.57957L19.4242 5.32654L16.9285 2.83086L18.6755 1.0839Z" stroke="#D12C35"/>
<path d="M14.4329 5.32654L16.9285 7.82221L7.71415 17.0366C7.60839 17.1423 7.48025 17.223 7.33917 17.2727L5.66997 17.8605C4.87802 18.1393 4.11575 17.3771 4.39461 16.5851L4.98236 14.9159C5.03203 14.7748 5.11272 14.6467 5.21848 14.5409L14.4329 5.32654Z" stroke="#D12C35"/>
<path d="M14.9736 2.29011C15.3641 1.89959 15.9972 1.89959 16.3878 2.29011L19.9649 5.86724C20.3554 6.25777 20.3554 6.89093 19.9649 7.28146L18.1763 9.07002L13.185 4.07868L14.9736 2.29011Z" stroke="#D12C35"/>
</g>
<defs>
<clipPath id="clip0_141_4634">
<rect width="24" height="24" fill="white" transform="translate(0.5)"/>
</clipPath>
</defs>
</svg>
