<svg width="25" height="24" viewBox="0 0 25 24" fill="none" xmlns="http://www.w3.org/2000/svg">
<path d="M24 19.8051C24 20.3355 23.7893 20.8442 23.4142 21.2193C23.0391 21.5943 22.5304 21.8051 22 21.8051H3C2.46957 21.8051 1.96086 21.5943 1.58579 21.2193C1.21071 20.8442 1 20.3355 1 19.8051V14.3051C1 14.1724 1.05268 14.0453 1.14645 13.9515C1.24021 13.8577 1.36739 13.8051 1.5 13.8051H23.5C23.6326 13.8051 23.7598 13.8577 23.8536 13.9515C23.9473 14.0453 24 14.1724 24 14.3051V19.8051Z" stroke="#D12C35" stroke-linecap="round" stroke-linejoin="round"/>
<path d="M22 13.8051V12.8051C22 12.2746 21.7893 11.7659 21.4142 11.3908C21.0391 11.0158 20.5304 10.8051 20 10.8051H5C4.46957 10.8051 3.96086 11.0158 3.58579 11.3908C3.21071 11.7659 3 12.2746 3 12.8051V13.8051" stroke="#D12C35" stroke-linecap="round" stroke-linejoin="round"/>
<path d="M5 15.8051H20V19.8051H5V15.8051Z" stroke="#D12C35" stroke-linecap="round" stroke-linejoin="round"/>
<path d="M5.5 10.8051C5.5 10.8051 5.5 5.30505 12.5 5.30505C15.9 5.30505 17.133 3.86005 18.041 2.42705C18.0888 2.35193 18.1558 2.29094 18.2351 2.2504C18.3144 2.20985 18.4031 2.19121 18.492 2.19641C18.5809 2.20161 18.6668 2.23046 18.7408 2.27997C18.8148 2.32948 18.8743 2.39787 18.913 2.47805C20.489 5.74905 20.351 8.49105 18.5 10.8051" stroke="#D12C35" stroke-linecap="round" stroke-linejoin="round"/>
</svg>
