<svg width="25" height="24" viewBox="0 0 25 24" fill="none" xmlns="http://www.w3.org/2000/svg">
<path d="M19.9427 1.6308C20.733 0.915367 21.9455 0.945473 22.6992 1.69924L22.8363 1.83629C23.5901 2.59006 23.6202 3.80255 22.9047 4.59279L17.4203 10.6508L6.15076 21.9203L2.61522 18.3848L13.8847 7.11526L19.9427 1.6308Z" stroke="#D12C35"/>
<rect x="13.929" y="7.07104" width="5" height="1" transform="rotate(45 13.929 7.07104)" fill="#D12C35"/>
<rect x="4.73657" y="16.2634" width="5" height="1" transform="rotate(45 4.73657 16.2634)" fill="#D12C35"/>
<rect x="3.37695" y="19.1466" width="2.87501" height="1.91668" rx="0.239584" transform="rotate(45 3.37695 19.1466)" stroke="#D12C35"/>
<path d="M18.0558 8.01602C17.6617 8.03785 17.2604 7.89825 16.9593 7.5972C16.6583 7.29616 16.5187 6.89481 16.5405 6.50073" stroke="#D12C35" stroke-linecap="round"/>
<path d="M11.1698 9.99839C11.1698 9.99839 11.9604 9.88546 12.8639 11.6925C13.7675 13.4996 14.5581 13.3866 14.5581 13.3866" stroke="#D12C35"/>
</svg>
